<svg width="32" height="33" viewBox="0 0 32 33" fill="none" xmlns="http://www.w3.org/2000/svg">
<path d="M31.7333 13.7267C30.4533 6.20667 23.8933 0.5 15.9999 0.5C8.1066 0.5 1.5466 6.20667 0.266602 13.7267L15.9999 5.83333L31.7333 13.7267Z" fill="#699635"/>
<path d="M0.266602 19.2733C1.5466 26.7933 8.1066 32.5 15.9999 32.5C23.8933 32.5 30.4533 26.7933 31.7333 19.2733L15.9999 27.1666L0.266602 19.2733Z" fill="#699635"/>
<path d="M16 5.83337L0.266667 13.7267C0.106667 14.6334 0 15.54 0 16.5C0 17.46 0.106667 18.3667 0.266667 19.2734L16 27.1667L31.7333 19.2734C31.8933 18.3667 32 17.46 32 16.5C32 15.54 31.8933 14.6334 31.7333 13.7267L16 5.83337Z" fill="#FFE62E"/>
<path d="M12.8 14.58C11.0933 14.58 9.49333 14.9533 8.05333 15.5933C8 15.9133 8 16.18 8 16.5C8 20.9266 11.5733 24.5 16 24.5C18.9867 24.5 21.6 22.8466 22.9867 20.4466C21.0133 16.98 17.1733 14.58 12.8 14.58Z" fill="#428BC1"/>
<path d="M23.8934 17.78C23.9467 17.3533 24 16.9267 24 16.5C24 12.0733 20.4267 8.5 16 8.5C12.8534 8.5 10.1334 10.3133 8.80005 12.98C10.08 12.6067 11.4134 12.3933 12.8 12.3933C17.3334 12.3933 21.3334 14.5267 23.8934 17.78Z" fill="#428BC1"/>
<path d="M12.7999 12.3933C11.4132 12.3933 10.0799 12.6066 8.79989 12.98C8.42656 13.78 8.15989 14.6333 8.05322 15.5933C9.49322 14.9533 11.0932 14.58 12.7999 14.58C17.1732 14.58 21.0132 16.9266 22.9866 20.3933C23.4666 19.5933 23.7332 18.6866 23.8932 17.78C21.3332 14.5266 17.3332 12.3933 12.7999 12.3933Z" fill="white"/>
<path d="M10.6666 17.0333C10.9612 17.0333 11.2 16.7946 11.2 16.5C11.2 16.2055 10.9612 15.9667 10.6666 15.9667C10.3721 15.9667 10.1333 16.2055 10.1333 16.5C10.1333 16.7946 10.3721 17.0333 10.6666 17.0333Z" fill="white"/>
<path d="M12.7999 20.2333C13.0945 20.2333 13.3333 19.9945 13.3333 19.7C13.3333 19.4054 13.0945 19.1666 12.7999 19.1666C12.5054 19.1666 12.2666 19.4054 12.2666 19.7C12.2666 19.9945 12.5054 20.2333 12.7999 20.2333Z" fill="white"/>
<path d="M15.9999 20.2333C16.2944 20.2333 16.5332 19.9945 16.5332 19.7C16.5332 19.4054 16.2944 19.1666 15.9999 19.1666C15.7053 19.1666 15.4666 19.4054 15.4666 19.7C15.4666 19.9945 15.7053 20.2333 15.9999 20.2333Z" fill="white"/>
<path d="M15.9999 22.3666C16.2944 22.3666 16.5332 22.1278 16.5332 21.8333C16.5332 21.5387 16.2944 21.2999 15.9999 21.2999C15.7053 21.2999 15.4666 21.5387 15.4666 21.8333C15.4666 22.1278 15.7053 22.3666 15.9999 22.3666Z" fill="white"/>
<path d="M20.2665 20.2333C20.561 20.2333 20.7998 19.9945 20.7998 19.7C20.7998 19.4054 20.561 19.1666 20.2665 19.1666C19.9719 19.1666 19.7332 19.4054 19.7332 19.7C19.7332 19.9945 19.9719 20.2333 20.2665 20.2333Z" fill="white"/>
<path d="M20.2665 22.3666C20.561 22.3666 20.7998 22.1278 20.7998 21.8333C20.7998 21.5387 20.561 21.2999 20.2665 21.2999C19.9719 21.2999 19.7332 21.5387 19.7332 21.8333C19.7332 22.1278 19.9719 22.3666 20.2665 22.3666Z" fill="white"/>
<path d="M18.1332 21.2999C18.4277 21.2999 18.6665 21.0612 18.6665 20.7666C18.6665 20.4721 18.4277 20.2333 18.1332 20.2333C17.8386 20.2333 17.5999 20.4721 17.5999 20.7666C17.5999 21.0612 17.8386 21.2999 18.1332 21.2999Z" fill="white"/>
<path d="M10.6666 19.1666C10.9612 19.1666 11.2 18.9279 11.2 18.6333C11.2 18.3388 10.9612 18.1 10.6666 18.1C10.3721 18.1 10.1333 18.3388 10.1333 18.6333C10.1333 18.9279 10.3721 19.1666 10.6666 19.1666Z" fill="white"/>
</svg>
