<svg width="32" height="32" viewBox="0 0 32 32" fill="none" xmlns="http://www.w3.org/2000/svg">
<g clip-path="url(#clip0_695_22)">
<path d="M0.0424805 15.9999C0.0424805 19.1382 0.946736 22.0637 2.48929 24.5105H29.4574C30.9999 22.0637 31.9042 19.1382 31.9042 15.9999C31.9042 12.8616 30.9999 9.93607 29.4574 7.48926H2.48929C0.946736 9.93607 0.0424805 12.8616 0.0424805 15.9999Z" fill="#FFCE31"/>
<path d="M29.5105 7.48929C26.6914 3.0212 21.6914 0.0424805 15.9999 0.0424805C10.3084 0.0424805 5.30841 3.0212 2.48926 7.48929H29.5105Z" fill="#ED4C5C"/>
<path d="M2.48926 24.5105C5.30841 28.9786 10.3084 31.9573 15.9999 31.9573C21.6914 31.9573 26.6914 28.9786 29.5105 24.5105H2.48926Z" fill="#ED4C5C"/>
<path d="M3.87231 14.2446H5.57444V15.2021H3.87231V14.2446Z" fill="#C8B100"/>
<path d="M3.87231 21.2659H5.62763V22.1701H3.87231V21.2659Z" fill="#C8B100"/>
<path d="M3.71273 19.7766C3.55316 19.883 3.44678 19.9894 3.44678 20.0426C3.44678 20.0958 3.49997 20.149 3.60635 20.2021C3.71273 20.2553 3.81912 20.3617 3.76593 20.4681C3.87231 20.3617 3.9255 20.2553 3.9255 20.149C3.9255 19.9894 3.81912 19.8298 3.71273 19.7766Z" fill="#ED4C5C"/>
<path d="M4.13818 15.2021H5.36159V21.266H4.13818V15.2021Z" fill="white"/>
<path d="M6.63831 17.4362C6.37235 17.3299 5.89363 17.2235 5.36172 17.2235C5.20214 17.2235 4.98938 17.2235 4.77661 17.2767C4.03193 17.383 3.44682 17.7022 3.50001 17.915L3.23406 17.3299C3.18087 17.0639 3.81916 16.7447 4.61704 16.5852C4.88299 16.532 5.14895 16.532 5.36172 16.532C5.89363 16.532 6.37235 16.5852 6.63831 16.6916V17.4362Z" fill="#ED4C5C"/>
<path d="M4.13833 18.234C3.81918 18.234 3.55322 18.1276 3.55322 17.968C3.55322 17.8617 3.65961 17.7021 3.87237 17.5957H4.19152L4.13833 18.234Z" fill="#ED4C5C"/>
<path d="M5.36182 17.7554C5.57458 17.8086 5.73416 17.8618 5.84054 17.9149C5.89373 17.9681 5.68097 18.1809 5.36182 18.3405V17.7554Z" fill="#ED4C5C"/>
<path d="M3.34052 19.4044C3.28733 19.298 3.65967 19.0853 4.13839 18.9257C4.35115 18.8725 4.51073 18.7661 4.77669 18.6597C5.41498 18.3938 5.9469 18.0214 5.84052 17.915L5.9469 18.5533C6.00009 18.6597 5.57456 18.9789 4.93626 19.298C4.7235 19.4044 4.35115 19.564 4.13839 19.6172C3.76605 19.7236 3.4469 19.9363 3.4469 19.9895L3.34052 19.4044Z" fill="#ED4C5C"/>
<path d="M15.3086 14.2446H17.0107V15.2021H15.3086V14.2446Z" fill="#C8B100"/>
<path d="M15.2554 21.2659H17.0107V22.1701H15.2554V21.2659Z" fill="#C8B100"/>
<path d="M17.1703 19.7766C17.3299 19.883 17.4362 19.9894 17.4362 20.0426C17.4362 20.0958 17.3831 20.149 17.2767 20.2021C17.1703 20.3085 17.0639 20.4681 17.1171 20.5213C17.0107 20.4149 16.9575 20.3085 16.9575 20.2021C16.9575 19.9894 17.0639 19.8298 17.1703 19.7766Z" fill="#ED4C5C"/>
<path d="M15.5212 15.2021H16.7446V21.266H15.5212V15.2021Z" fill="white"/>
<path d="M14.2449 17.436C14.5108 17.3296 14.9896 17.2232 15.5215 17.2232C15.681 17.2232 15.8938 17.2232 16.1066 17.2764C16.8513 17.3828 17.4364 17.702 17.3832 17.9147L17.6491 17.2764C17.7023 17.0105 17.064 16.6913 16.2661 16.5317H15.5215C14.9896 16.5317 14.5108 16.5849 14.2449 16.6913V17.436Z" fill="#ED4C5C"/>
<path d="M16.7448 18.234C17.064 18.234 17.3299 18.1276 17.3299 17.968C17.3299 17.8617 17.2236 17.7021 17.0108 17.5957H16.6917L16.7448 18.234Z" fill="#ED4C5C"/>
<path d="M15.5213 17.7551C15.3085 17.8083 15.149 17.8615 15.0426 17.9147C14.9894 17.9679 15.2021 18.1807 15.5213 18.3402V17.7551Z" fill="#ED4C5C"/>
<path d="M17.5427 19.4042C17.5959 19.2978 17.2236 19.085 16.7449 18.9254C16.5321 18.8722 16.3725 18.7659 16.1066 18.6595C15.4683 18.3935 14.9364 18.0212 15.0427 17.9148L14.9364 18.5531C14.8832 18.6595 15.3087 18.9786 15.947 19.2978C16.1598 19.4042 16.5321 19.5637 16.7449 19.6169C17.1172 19.7233 17.4364 19.9893 17.3832 20.0425L17.5427 19.4042Z" fill="#ED4C5C"/>
<path d="M10.415 10.8403C11.4256 10.8403 13.5001 11.0531 14.2448 11.7978C13.4469 13.7127 12.1703 12.9148 10.415 12.9148C8.71286 12.9148 7.38308 13.7127 6.58521 11.7978C7.32989 11.0531 9.35116 10.8403 10.415 10.8403Z" fill="#ED4C5C"/>
<path d="M13.0214 12.9683C12.3831 12.5959 11.4256 12.5427 10.415 12.5427C9.40434 12.5427 8.44689 12.6491 7.80859 12.9683L8.02136 13.8725C8.60647 14.0321 9.45753 14.1385 10.415 14.1385C11.3724 14.1385 12.1703 14.0321 12.8086 13.8725L13.0214 12.9683Z" fill="#C8B100"/>
<path d="M13.9256 10.6809C13.7129 10.5214 13.2873 10.3618 12.915 10.3618C12.7554 10.3618 12.5958 10.3618 12.4363 10.415C12.4363 10.415 12.1171 9.98944 11.3724 9.98944C11.1065 9.98944 10.8937 10.0426 10.681 10.149V10.0958C10.6278 9.98944 10.5214 9.88306 10.415 9.88306C10.3086 9.88306 10.149 10.0426 10.149 10.149V10.2022C9.93627 10.0958 9.72351 10.0426 9.45755 10.0426C8.71287 10.0426 8.39372 10.5214 8.39372 10.4682C8.23415 10.415 8.07457 10.415 7.915 10.415C5.46819 10.415 6.69159 12.0639 6.69159 12.0639L6.95755 11.7448C6.37244 11.0001 6.90436 10.5745 7.96819 10.5745C8.12776 10.5745 8.23415 10.5745 8.34053 10.6277C7.96819 11.1597 8.65968 11.6384 8.65968 11.6384L8.81925 11.3724C8.44691 11.1065 8.39372 10.2022 9.45755 10.2022C9.72351 10.2022 9.93627 10.2554 10.149 10.415C10.149 10.4682 10.0958 11.2128 10.0427 11.3192L10.4682 11.6916L10.8937 11.3192C10.8405 11.1597 10.7873 10.4682 10.7873 10.415C10.9469 10.3086 11.2129 10.2022 11.4788 10.2022C12.5958 10.2022 12.5958 11.1065 12.1171 11.3724L12.2767 11.6384C12.2767 11.6384 12.8618 11.1597 12.5958 10.6277C12.7022 10.6277 12.8618 10.5745 12.9682 10.5745C14.2448 10.5745 14.298 11.532 13.9788 11.7448L14.1916 12.0639C14.0852 12.0639 14.6703 11.3192 13.9256 10.6809Z" fill="#C8B100"/>
<path d="M10.0957 9.67022C10.0957 9.51065 10.2553 9.35107 10.4149 9.35107C10.6276 9.35107 10.734 9.51065 10.734 9.67022C10.734 9.8298 10.5744 9.98937 10.4149 9.98937C10.2553 9.98937 10.0957 9.8298 10.0957 9.67022Z" fill="#005BBF"/>
<path d="M10.3085 8.76587V8.92544H10.1489V9.08502H10.3085V9.61693H10.0957V9.77651H10.734L10.7872 9.67012L10.734 9.61693H10.5212V9.08502H10.6808V8.92544H10.5212V8.76587H10.3085Z" fill="#C8B100"/>
<path d="M10.415 14.0319C9.56392 14.0319 8.81924 13.9255 8.23413 13.766C8.81924 13.6064 9.56392 13.5 10.415 13.5C11.266 13.5 12.0107 13.6064 12.5958 13.766C12.0639 13.9255 11.266 14.0319 10.415 14.0319Z" fill="#ED4C5C"/>
<path d="M10.468 23.234C9.45733 23.234 8.49989 22.9681 7.64882 22.5957C7.01052 22.2766 6.63818 21.6915 6.63818 21V18.4468H14.2978V21C14.2978 21.6915 13.8722 22.3298 13.2871 22.5957C12.4361 23.0212 11.4786 23.234 10.468 23.234Z" fill="white"/>
<path d="M10.4148 14.1914H14.2446V18.4467H10.4148V14.1914Z" fill="white"/>
<path d="M10.468 21C10.468 22.0106 9.61691 22.8085 8.55308 22.8085C7.48925 22.8085 6.63818 22.0106 6.63818 21V18.4468H10.468V21Z" fill="#ED4C5C"/>
<path d="M7.43628 22.4893C7.54266 22.5425 7.70224 22.6488 7.915 22.702V18.3403H7.48947L7.43628 22.4893Z" fill="#C8B100"/>
<path d="M6.58521 20.9467C6.58521 21.4786 6.79797 21.9042 7.01074 22.1169V18.3403H6.58521V20.9467Z" fill="#C8B100"/>
<path d="M8.28735 22.8084H8.71289V18.3403H8.28735V22.8084Z" fill="#C7B500"/>
<path d="M9.13818 22.702C9.29776 22.6488 9.51052 22.5425 9.61691 22.4893V18.3403H9.19138L9.13818 22.702Z" fill="#C8B100"/>
<path d="M6.58521 14.1914H10.415V18.4467H6.58521V14.1914Z" fill="#ED4C5C"/>
<path d="M10.0425 22.117C10.2552 21.9574 10.4148 21.585 10.468 21.1595V18.3936H10.0425V22.117Z" fill="#C8B100"/>
<path d="M14.298 18.4468V21C14.298 22.0106 13.447 22.8085 12.3832 22.8085C11.3193 22.8085 10.4683 22.0106 10.4683 21V18.4468H14.298Z" fill="#ED4C5C"/>
<path d="M12.9151 14.9361C13.0747 15.2552 13.0747 16.0531 12.596 15.8935C12.7024 15.9467 12.7555 16.319 12.9151 16.5318C13.1811 16.851 13.5002 16.585 13.447 16.2127C13.3407 15.6276 13.3938 15.2552 13.5002 14.6701C13.5002 14.7233 13.7662 14.7233 13.8726 14.6169C13.8194 14.7765 13.7662 14.9893 13.8726 14.9893C13.7662 15.1488 13.5002 15.4148 13.447 15.5744C13.3938 15.9467 13.9789 16.6382 13.3406 16.7978C12.9151 16.9041 13.1811 17.2233 13.3406 17.3829C13.3406 17.3829 13.1279 18.0744 13.2343 18.0212C12.8087 18.1807 12.9151 17.8084 12.9151 17.8084C13.1279 17.1701 12.5428 17.1169 12.596 17.0105C12.0641 16.9573 12.6492 17.4893 12.1704 17.4893C12.0641 17.4893 11.8513 17.5956 11.8513 17.5956C11.2662 17.5424 11.5853 17.0105 11.7981 17.0637C11.9577 17.1169 12.1172 17.3829 12.1172 17.0105C12.1172 17.0105 11.8513 16.585 12.5428 16.585C12.2768 16.585 12.1172 16.3722 12.0109 16.1063C11.9045 16.1595 11.7449 16.4254 11.1598 16.4786C11.1598 16.4786 11.0002 15.8935 11.1598 15.9999C11.3726 16.1063 11.4789 16.1063 11.6917 15.8935C11.5853 15.7339 10.947 15.5212 11.0534 15.1488C11.0534 15.0424 11.3726 14.8829 11.3726 14.8829C11.3194 15.1488 11.4789 15.4148 11.7981 15.4148C12.2236 15.468 12.0641 15.3084 12.1172 15.202C12.1704 15.0956 12.4896 15.2552 12.3832 14.9893C12.3832 14.9361 12.0109 14.8829 12.1172 14.7233C12.33 14.4573 12.6492 14.6701 12.9151 14.9361Z" fill="#ED4C5C"/>
<path d="M10.4682 22.702L10.3618 22.4361L10.4682 22.1169L10.5746 22.4361L10.4682 22.702Z" fill="#ED4C5C"/>
<path d="M7.75543 15.0957V15.3617H7.86181V15.5744H7.59585V16.1063H7.75543V17.2765H7.43628V17.8617H9.61713V17.2765H9.35117V16.1063H9.45756V15.5744H9.1916V15.3617H9.35117V15.0957H8.81926V15.3617H8.92564V15.5744H8.65968V14.9361H8.81926V14.6702H8.23415V14.9361H8.39373V15.5744H8.12777V15.3617H8.23415V15.0957H7.75543Z" fill="#C8B100"/>
<path d="M13.766 21.6383V18.9788H11V21.6383L12.2766 22.2234H12.4362L13.766 21.6383ZM12.2766 19.1915V20.0958L11.3723 19.1915H12.2766ZM11.1596 19.2447L12.2234 20.3085L11.1596 21.3724V19.2447ZM11.266 21.5851L12.2766 20.5745V22.0639L11.266 21.5851ZM12.4362 22.0107V20.5213L13.4468 21.532L12.4362 22.0107ZM13.5532 21.3724L12.4894 20.3085L13.5532 19.2447V21.3724ZM12.4362 19.1915H13.3404L12.4362 20.0958V19.1915Z" fill="#C8B100"/>
<path d="M9.19141 18.3937C9.19141 17.5958 9.72332 17.0107 10.4148 17.0107C11.1063 17.0107 11.6382 17.649 11.6382 18.3937C11.6382 19.1384 11.1063 19.7767 10.4148 19.7767C9.72332 19.7767 9.19141 19.1916 9.19141 18.3937Z" fill="#ED4C5C"/>
<path d="M9.56372 18.3937C9.56372 17.8086 9.93606 17.3831 10.4148 17.3831C10.8935 17.3831 11.2658 17.8618 11.2658 18.3937C11.2658 18.9788 10.8935 19.4043 10.4148 19.4043C9.98925 19.4575 9.56372 18.9788 9.56372 18.3937Z" fill="#005BBF"/>
<path d="M10.0426 17.7021L9.82983 18.2873L9.98941 18.3404L9.88303 18.5532H10.2022L10.0958 18.3404L10.2554 18.2873L10.0426 17.7021Z" fill="#C8B100"/>
<path d="M10.8405 17.7021L10.6277 18.2873L10.7873 18.3404L10.6809 18.5532H11L10.9468 18.3404L11.1064 18.2873L10.8405 17.7021Z" fill="#C8B100"/>
<path d="M10.4681 18.3936L10.2021 18.9787L10.3617 19.0319L10.3085 19.2446H10.5745L10.5213 19.0319L10.6809 18.9787L10.4681 18.3936Z" fill="#C8B100"/>
</g>
<defs>
<clipPath id="clip0_695_22">
<rect width="32" height="32" fill="white"/>
</clipPath>
</defs>
</svg>
