<svg width="188" height="188" viewBox="0 0 188 188" fill="none" xmlns="http://www.w3.org/2000/svg">
<g clip-path="url(#clip0_695_78)">
<path d="M144 14.625C129.313 5.5625 112.438 0.25 94 0.25V14.625H144Z" fill="#ED4C5C"/>
<path d="M94 29H161.5C156.187 23.6875 150.25 18.6875 144 14.625H94V29Z" fill="white"/>
<path d="M94 43.375H173.062C169.625 38.0625 165.875 33.375 161.813 29H94V43.375Z" fill="#ED4C5C"/>
<path d="M94 57.75H180.563C178.375 52.75 175.875 47.75 173.062 43.375H94V57.75Z" fill="white"/>
<path d="M94 72.125H185.25C184 67.125 182.438 62.4375 180.563 57.75H94V72.125Z" fill="#ED4C5C"/>
<path d="M94 86.8125H187.438C187.125 81.8125 186.188 77.125 185.25 72.4375H94V86.8125Z" fill="white"/>
<path d="M187.438 86.8125H94V94H0.25C0.25 96.5 0.25 98.6875 0.5625 101.187H187.438C187.75 98.6875 187.75 96.5 187.75 94C187.75 91.5 187.75 89 187.438 86.8125Z" fill="#ED4C5C"/>
<path d="M2.75 115.563H185.25C186.5 110.875 187.125 106.188 187.438 101.188H0.5625C0.875 105.875 1.5 110.875 2.75 115.563Z" fill="white"/>
<path d="M7.4375 129.937H180.563C182.438 125.25 184 120.563 185.25 115.562H2.75C4 120.563 5.5625 125.25 7.4375 129.937Z" fill="#ED4C5C"/>
<path d="M14.9375 144.312H173.062C175.875 139.625 178.375 134.938 180.563 129.938H7.4375C9.625 134.938 12.125 139.625 14.9375 144.312Z" fill="white"/>
<path d="M26.1875 158.688H161.812C165.875 154.313 169.937 149.313 173.062 144.312H14.9375C18.0625 149.625 22.125 154.313 26.1875 158.688Z" fill="#ED4C5C"/>
<path d="M43.6875 173.062H144.312C150.875 169 156.5 164 161.813 158.688H26.1875C31.5 164.312 37.4375 169 43.6875 173.062Z" fill="white"/>
<path d="M94 187.75C112.438 187.75 129.625 182.438 144.312 173.062H43.6875C58.375 182.438 75.5625 187.75 94 187.75Z" fill="#ED4C5C"/>
<path d="M44 14.625C37.4375 18.6875 31.5 23.6875 26.1875 29C21.8125 33.375 18.0625 38.375 14.9375 43.375C12.125 48.0625 9.3125 52.75 7.4375 57.75C5.5625 62.4375 4 67.125 2.75 72.125C1.5 76.8125 0.875 81.5 0.5625 86.5C0.25 89 0.25 91.5 0.25 94H94V0.25C75.5625 0.25 58.6875 5.5625 44 14.625Z" fill="#428BC1"/>
<path d="M72.125 3.375L73.6875 8.0625H78.375L74.625 11.1875L75.875 15.875L72.125 13.0625L68.375 15.875L69.625 11.1875L65.875 8.0625H70.5625L72.125 3.375Z" fill="white"/>
<path d="M84.625 22.125L86.1875 26.8125H90.875L87.125 29.9375L88.375 34.625L84.625 31.8125L80.875 34.625L82.125 29.9375L78.375 26.8125H83.0625L84.625 22.125Z" fill="white"/>
<path d="M59.625 22.125L61.1875 26.8125H65.875L62.125 29.9375L63.375 34.625L59.625 31.8125L55.875 34.625L57.125 29.9375L53.375 26.8125H58.0625L59.625 22.125Z" fill="white"/>
<path d="M72.125 40.875L73.6875 45.5625H78.375L74.625 48.6875L75.875 53.375L72.125 50.5625L68.375 53.375L69.625 48.6875L65.875 45.5625H70.5625L72.125 40.875Z" fill="white"/>
<path d="M47.125 40.875L48.6875 45.5625H53.375L49.625 48.6875L50.875 53.375L47.125 50.5625L43.375 53.375L44.625 48.6875L40.875 45.5625H45.5625L47.125 40.875Z" fill="white"/>
<path d="M22.125 40.875L23.6875 45.5625H28.375L24.625 48.6875L25.875 53.375L22.125 50.5625L18.375 53.375L19.625 48.6875L15.875 45.5625H20.5625L22.125 40.875Z" fill="white"/>
<path d="M84.625 59.625L86.1875 64.3125H90.875L87.125 67.4375L88.375 72.125L84.625 69.3125L80.875 72.125L82.125 67.4375L78.375 64.3125H83.0625L84.625 59.625Z" fill="white"/>
<path d="M59.625 59.625L61.1875 64.3125H65.875L62.125 67.4375L63.375 72.125L59.625 69.3125L55.875 72.125L57.125 67.4375L53.375 64.3125H58.0625L59.625 59.625Z" fill="white"/>
<path d="M34.625 59.625L36.1875 64.3125H40.875L37.125 67.4375L38.375 72.125L34.625 69.3125L30.875 72.125L32.125 67.4375L28.375 64.3125H33.0625L34.625 59.625Z" fill="white"/>
<path d="M72.125 78.375L73.6875 83.0625H78.375L74.625 86.1875L75.875 90.875L72.125 88.0625L68.375 90.875L69.625 86.1875L65.875 83.0625H70.5625L72.125 78.375Z" fill="white"/>
<path d="M47.125 78.375L48.6875 83.0625H53.375L49.625 86.1875L50.875 90.875L47.125 88.0625L43.375 90.875L44.625 86.1875L40.875 83.0625H45.5625L47.125 78.375Z" fill="white"/>
<path d="M22.125 78.375L23.6875 83.0625H28.375L24.625 86.1875L25.875 90.875L22.125 88.0625L18.375 90.875L19.625 86.1875L15.875 83.0625H20.5625L22.125 78.375Z" fill="white"/>
<path d="M30.875 34.625L34.625 31.8125L38.375 34.625L36.8125 29.9375L40.5625 26.8125H35.875L34.625 22.125L33.0625 26.8125H28.6875L32.4375 29.625L30.875 34.625Z" fill="white"/>
<path d="M5.875 72.125L9.625 69.3125L13.375 72.125L11.8125 67.4375L15.5625 64.3125H11.1875L9.625 59.625L8.0625 64.3125H4.9375C4.9375 64.625 4.625 64.9375 4.625 65.25L7.125 67.125L5.875 72.125Z" fill="white"/>
</g>
<defs>
<clipPath id="clip0_695_78">
<rect width="188" height="188" fill="white"/>
</clipPath>
</defs>
</svg>
