<svg width="40" height="40" viewBox="0 0 40 40" fill="none" xmlns="http://www.w3.org/2000/svg">
<rect x="1" y="1" width="38" height="38" rx="19" fill="#0494FC"/>
<rect x="1" y="1" width="38" height="38" rx="19" stroke="#0494FC" stroke-width="2"/>
<path fill-rule="evenodd" clip-rule="evenodd" d="M16.9502 31.6779C16.9502 31.3781 16.9396 30.5848 16.9336 29.5312C13.5101 30.2935 12.7878 27.8393 12.7878 27.8393C12.2279 26.3813 11.421 25.9932 11.421 25.9932C10.3035 25.2099 11.5056 25.2262 11.5056 25.2262C12.741 25.3153 13.3907 26.5269 13.3907 26.5269C14.4886 28.4552 16.2709 27.8989 16.9728 27.5759C17.0847 26.7601 17.4028 26.2039 17.7541 25.8886C15.0212 25.5702 12.1478 24.4871 12.1478 19.6514C12.1478 18.274 12.6276 17.1476 13.4149 16.2652C13.2887 15.946 12.8656 14.6631 13.5358 12.9254C13.5358 12.9254 14.5694 12.5861 16.92 14.2192C17.9014 13.9395 18.9547 13.7985 20.0019 13.7939C21.0468 13.7985 22.0993 13.9395 23.0831 14.2192C25.4321 12.5861 26.4642 12.9254 26.4642 12.9254C27.1359 14.6623 26.7135 15.9452 26.5866 16.2652C27.3754 17.1476 27.8514 18.274 27.8514 19.6514C27.8514 24.4995 24.9735 25.5663 22.2315 25.8785C22.6743 26.2682 23.0672 27.0382 23.0672 28.2158C23.0672 29.9031 23.0513 31.2642 23.0513 31.6779C23.0513 32.0157 23.2735 32.4077 23.8983 32.2845C28.7845 30.6127 32.3077 25.8855 32.3077 20.3123C32.3077 13.3422 26.7966 7.69232 19.9996 7.69232C13.2034 7.69232 7.69231 13.3422 7.69231 20.3123C7.69306 25.887 11.2193 30.6174 16.11 32.2861C16.725 32.4015 16.9502 32.0118 16.9502 31.6779Z" fill="white"/>
</svg>
