<svg width="55" height="54" viewBox="0 0 55 54" fill="none" xmlns="http://www.w3.org/2000/svg">
<rect x="1.5" y="1" width="52" height="52" rx="26" fill="#0494FC"/>
<rect x="1.5" y="1" width="52" height="52" rx="26" stroke="#0494FC" stroke-width="2"/>
<path fill-rule="evenodd" clip-rule="evenodd" d="M20.1947 39.4409V22.972H15.1045V39.4409H20.1947ZM20.1947 17.1345C20.1644 15.6607 19.1821 14.5386 17.5865 14.5386C15.9904 14.5386 14.9475 15.6607 14.9475 17.1345C14.9475 18.5763 15.9601 19.7309 17.5254 19.7309H17.5557C19.1821 19.7309 20.1947 18.5763 20.1947 17.1345ZM28.499 39.4409V30.0577C28.499 29.5556 28.5352 29.0534 28.6829 28.6954C29.0866 27.6916 30.0055 26.6524 31.5483 26.6524C33.5694 26.6524 34.837 27.7995 34.837 30.0577V39.4409H39.9615V29.8067C39.9615 24.6457 37.2065 22.2442 33.5316 22.2442C30.5186 22.2442 29.196 23.9287 28.4617 25.0753L28.4985 22.8726H23.3828C23.4564 24.4493 23.3828 39.4409 23.3828 39.4409H28.499Z" fill="white"/>
</svg>
