<svg width="54" height="54" viewBox="0 0 54 54" fill="none" xmlns="http://www.w3.org/2000/svg">
<rect x="1.25" y="1.25" width="51.5" height="51.5" rx="25.75" fill="#0494FC"/>
<rect x="1.25" y="1.25" width="51.5" height="51.5" rx="25.75" stroke="#0494FC" stroke-width="2.5"/>
<path fill-rule="evenodd" clip-rule="evenodd" d="M19.6948 39.4408V22.9719H14.6046V39.4408H19.6948ZM19.6948 17.1344C19.6645 15.6606 18.6822 14.5385 17.0866 14.5385C15.4905 14.5385 14.4476 15.6606 14.4476 17.1344C14.4476 18.5762 15.4602 19.7308 17.0255 19.7308H17.0558C18.6822 19.7308 19.6948 18.5762 19.6948 17.1344ZM27.999 39.4408V30.0576C27.999 29.5555 28.0353 29.0533 28.183 28.6953C28.5867 27.6914 29.5056 26.6523 31.0484 26.6523C33.0695 26.6523 34.3371 27.7993 34.3371 30.0576V39.4408H39.4615V29.8065C39.4615 24.6456 36.7065 22.2441 33.0317 22.2441C30.0187 22.2441 28.6961 23.9286 27.9618 25.0752L27.9985 22.8725H22.8829C22.9565 24.4491 22.8829 39.4408 22.8829 39.4408H27.999Z" fill="white"/>
</svg>
