<svg width="32" height="32" viewBox="0 0 32 32" fill="none" xmlns="http://www.w3.org/2000/svg">
<rect width="32" height="32" rx="16" fill="#E14E1D"/>
<path d="M7 6L7.95197 16.6799H20.1927L19.7819 21.2606L15.8407 22.3262L11.9069 21.2622L11.6439 18.3209H8.09902L8.60597 23.9908L15.8399 26L23.0831 23.9908L24.0542 13.1486H11.182L10.8589 9.53202H24.3742L24.6905 6H7Z" fill="white"/>
<path d="M15.8453 6H7L7.95197 16.6799H15.8453V13.1486H11.182L10.8589 9.53202H15.8453V6ZM15.8453 22.3247L15.8407 22.3262L11.9069 21.2622L11.6439 18.3209H8.09902L8.60597 23.9908L15.8399 26L15.8454 25.9985V22.3247H15.8453Z" fill="#EBEBEB"/>
</svg>
