<svg width="55" height="54" viewBox="0 0 55 54" fill="none" xmlns="http://www.w3.org/2000/svg">
<rect x="1.5" y="1" width="52" height="52" rx="26" fill="#0494FC"/>
<rect x="1.5" y="1" width="52" height="52" rx="26" stroke="#0494FC" stroke-width="2"/>
<path fill-rule="evenodd" clip-rule="evenodd" d="M23.3829 42.7654C23.3829 42.3606 23.3686 41.2897 23.3605 39.8673C18.7388 40.8964 17.7637 37.5832 17.7637 37.5832C17.0079 35.6149 15.9185 35.0909 15.9185 35.0909C14.4099 34.0335 16.0327 34.0555 16.0327 34.0555C17.7004 34.1758 18.5777 35.8115 18.5777 35.8115C20.0597 38.4146 22.4659 37.6637 23.4135 37.2276C23.5645 36.1263 23.9939 35.3754 24.4682 34.9497C20.7788 34.5199 16.8997 33.0578 16.8997 26.5296C16.8997 24.67 17.5474 23.1494 18.6103 21.9581C18.4399 21.5273 17.8687 19.7953 18.7735 17.4495C18.7735 17.4495 20.1689 16.9914 23.3421 19.1961C24.6671 18.8185 26.089 18.6282 27.5027 18.6219C28.9134 18.6282 30.3342 18.8185 31.6623 19.1961C34.8335 16.9914 36.2268 17.4495 36.2268 17.4495C37.1336 19.7943 36.5634 21.5262 36.3921 21.9581C37.4569 23.1494 38.0995 24.67 38.0995 26.5296C38.0995 33.0745 34.2143 34.5146 30.5127 34.9361C31.1105 35.4622 31.6409 36.5018 31.6409 38.0914C31.6409 40.3693 31.6194 42.2069 31.6194 42.7654C31.6194 43.2213 31.9193 43.7505 32.7629 43.5843C39.3592 41.3273 44.1155 34.9455 44.1155 27.4217C44.1155 18.0122 36.6756 10.3848 27.4996 10.3848C18.3247 10.3848 10.8848 18.0122 10.8848 27.4217C10.8858 34.9476 15.6462 41.3336 22.2487 43.5863C23.0789 43.7422 23.3829 43.2161 23.3829 42.7654Z" fill="white"/>
</svg>
