<svg width="32" height="32" viewBox="0 0 32 32" fill="none" xmlns="http://www.w3.org/2000/svg">
<g clip-path="url(#clip0_724_133)">
<path d="M32 16C32 7.16344 24.8366 0 16 0C7.16344 0 0 7.16344 0 16C0 24.8366 7.16344 32 16 32C24.8366 32 32 24.8366 32 16Z" fill="url(#paint0_linear_724_133)"/>
<g filter="url(#filter0_d_724_133)">
<path d="M16.9963 24.0196C20.7058 24.0196 22.9411 22.2033 22.9411 19.2075C22.9411 16.9429 21.3462 15.3035 18.9779 15.0439V14.9496C20.7179 14.6665 22.0833 13.0506 22.0833 11.2461C22.0833 8.6749 20.0534 7 16.96 7H10V24.0196H16.9963ZM12.7066 9.1584H16.3075C18.265 9.1584 19.3766 10.0312 19.3766 11.6117C19.3766 13.2984 18.0837 14.2419 15.7396 14.2419H12.7066V9.1584ZM12.7066 21.8612V16.2589H16.2832C18.845 16.2589 20.1741 17.2024 20.1741 19.0424C20.1741 20.8823 18.8813 21.8612 16.4404 21.8612H12.7066Z" fill="url(#paint1_linear_724_133)"/>
<path d="M16.9963 24.0196C20.7058 24.0196 22.9411 22.2033 22.9411 19.2075C22.9411 16.9429 21.3462 15.3035 18.9779 15.0439V14.9496C20.7179 14.6665 22.0833 13.0506 22.0833 11.2461C22.0833 8.6749 20.0534 7 16.96 7H10V24.0196H16.9963ZM12.7066 9.1584H16.3075C18.265 9.1584 19.3766 10.0312 19.3766 11.6117C19.3766 13.2984 18.0838 14.2419 15.7396 14.2419H12.7066V9.1584ZM12.7066 21.8612V16.2589H16.2832C18.845 16.2589 20.1741 17.2024 20.1741 19.0424C20.1741 20.8823 18.8813 21.8612 16.4404 21.8612H12.7066Z" stroke="white" stroke-width="2"/>
</g>
</g>
<defs>
<filter id="filter0_d_724_133" x="-7" y="-6" width="46.9412" height="51.0195" filterUnits="userSpaceOnUse" color-interpolation-filters="sRGB">
<feFlood flood-opacity="0" result="BackgroundImageFix"/>
<feColorMatrix in="SourceAlpha" type="matrix" values="0 0 0 0 0 0 0 0 0 0 0 0 0 0 0 0 0 0 127 0" result="hardAlpha"/>
<feOffset dy="4"/>
<feGaussianBlur stdDeviation="8"/>
<feColorMatrix type="matrix" values="0 0 0 0 0 0 0 0 0 0 0 0 0 0 0 0 0 0 0.15 0"/>
<feBlend mode="normal" in2="BackgroundImageFix" result="effect1_dropShadow_724_133"/>
<feBlend mode="normal" in="SourceGraphic" in2="effect1_dropShadow_724_133" result="shape"/>
</filter>
<linearGradient id="paint0_linear_724_133" x1="0" y1="0" x2="32" y2="32" gradientUnits="userSpaceOnUse">
<stop stop-color="#9013FE"/>
<stop offset="1" stop-color="#6B11F4"/>
</linearGradient>
<linearGradient id="paint1_linear_724_133" x1="11.2241" y1="8.1202" x2="19.0676" y2="21.3855" gradientUnits="userSpaceOnUse">
<stop stop-color="white"/>
<stop offset="1" stop-color="#F1E5FC"/>
</linearGradient>
<clipPath id="clip0_724_133">
<rect width="32" height="32" fill="white"/>
</clipPath>
</defs>
</svg>
