<svg width="64" height="64" viewBox="0 0 64 64" fill="none" xmlns="http://www.w3.org/2000/svg">
<g clip-path="url(#clip0_1300_62)">
<path d="M49 0H15C6.71573 0 0 6.71573 0 15V49C0 57.2843 6.71573 64 15 64H49C57.2843 64 64 57.2843 64 49V15C64 6.71573 57.2843 0 49 0Z" fill="#242938"/>
<path d="M56.9999 45.7343C56.2722 46.0101 55.4686 46.0093 54.7411 45.7328C54.0139 45.4561 53.4129 44.9226 53.0522 44.2331C50.7864 40.8413 48.2844 37.6026 45.8797 34.2943L44.8369 32.9043C41.9734 36.7408 39.1099 40.4243 36.4967 44.2471C36.1562 44.9061 35.5879 45.4188 34.8974 45.6898C34.2069 45.9611 33.4414 45.9718 32.7437 45.7206L43.4887 31.3058L33.4942 18.281C34.2137 18.0212 35.0007 18.0176 35.7224 18.2709C36.4442 18.5241 37.0564 19.0187 37.4559 19.671C39.7772 23.0627 42.3489 26.3016 44.9064 29.7351C47.4782 26.3293 50.0219 23.0766 52.3989 19.7127C52.7411 19.0644 53.3099 18.5646 53.9969 18.3083C54.6837 18.052 55.4409 18.0571 56.1241 18.3227L52.2459 23.4658C50.5084 25.7593 48.7986 28.0668 46.9916 30.3048C46.8459 30.4353 46.7294 30.5948 46.6497 30.7733C46.5699 30.9518 46.5287 31.1451 46.5287 31.3406C46.5287 31.5358 46.5699 31.7291 46.6497 31.9076C46.7294 32.0861 46.8459 32.2456 46.9916 32.3761C50.3139 36.7826 53.6082 41.2028 56.9999 45.7343Z" fill="white"/>
<path d="M7 31.125C7.2919 29.735 7.47262 28.2198 7.87572 26.802C10.2805 18.2532 20.0804 14.6947 26.822 19.9908C30.7698 23.0906 31.7568 27.4833 31.5623 32.4318H9.32137C8.95997 41.2725 15.3403 46.6103 23.4998 43.8858C24.8234 43.4123 26.0083 42.6168 26.9475 41.5708C27.8868 40.5248 28.5505 39.2613 28.8792 37.8945C29.3102 36.5045 30.0053 36.2683 31.3258 36.6713C31.1083 38.3635 30.51 39.9845 29.5758 41.4123C28.6418 42.84 27.396 44.0373 25.9325 44.9143C23.5143 46.2368 20.74 46.7605 18.0062 46.411C15.2723 46.0615 12.7191 44.8565 10.7114 42.9683C8.72527 40.735 7.52433 37.9135 7.2919 34.9338C7.2919 34.4613 7.1112 33.9885 7.0139 33.5438C7.00462 32.719 7 31.9128 7 31.125ZM9.34918 30.5273H29.4632C29.338 24.1192 25.293 19.5738 19.8997 19.5321C13.8946 19.4487 9.5994 23.8968 9.33527 30.4995L9.34918 30.5273Z" fill="white"/>
</g>
<defs>
<clipPath id="clip0_1300_62">
<rect width="64" height="64" rx="32" fill="white"/>
</clipPath>
</defs>
</svg>
