<svg width="64" height="64" viewBox="0 0 64 64" fill="none" xmlns="http://www.w3.org/2000/svg">
<g clip-path="url(#clip0_1300_137)">
<path d="M49 0H15C6.71573 0 0 6.71573 0 15V49C0 57.2843 6.71573 64 15 64H49C57.2843 64 64 57.2843 64 49V15C64 6.71573 57.2843 0 49 0Z" fill="#430098"/>
<path d="M17.5 54.5V41.6427L24.7321 48.0715L17.5 54.5ZM40 54.5V35.3027C39.9688 33.8025 39.2463 32 35.9823 32C29.446 32 22.1141 35.2875 22.041 35.3203L17.5 37.3775V9.5H23.9286V27.75C27.138 26.7053 31.6243 25.5715 35.9823 25.5715C39.9558 25.5715 42.3342 27.1335 43.6297 28.4443C46.3947 31.2405 46.4325 34.8027 46.4287 35.2142V54.5H40ZM41.6073 19.9464H35.1785C37.705 16.6317 39.2912 13.1434 40 9.5H46.4285C45.9948 13.1514 44.5145 16.6518 41.6073 19.9464Z" fill="white"/>
</g>
<defs>
<clipPath id="clip0_1300_137">
<rect width="64" height="64" rx="32" fill="white"/>
</clipPath>
</defs>
</svg>
