<svg width="64" height="64" viewBox="0 0 64 64" fill="none" xmlns="http://www.w3.org/2000/svg">
<g clip-path="url(#clip0_1300_140)">
<mask id="mask0_1300_140" style="mask-type:luminance" maskUnits="userSpaceOnUse" x="0" y="0" width="64" height="64">
<path d="M64 0H0V64H64V0Z" fill="white"/>
</mask>
<g mask="url(#mask0_1300_140)">
<path d="M49 0H15C6.71572 0 0 6.71572 0 15V49C0 57.2843 6.71572 64 15 64H49C57.2843 64 64 57.2843 64 49V15C64 6.71572 57.2843 0 49 0Z" fill="#242938"/>
</g>
<path d="M31.5 53C43.3741 53 53 43.3741 53 31.5C53 19.6259 43.3741 10 31.5 10C19.6256 10 10 19.6259 10 31.5C10 43.3744 19.6259 53 31.5 53Z" fill="white"/>
<path d="M31.5 9C19.0737 9 9 19.0737 9 31.5C9 43.9263 19.0737 54 31.5 54C43.9263 54 54 43.9263 54 31.5C54 19.0737 43.9263 9 31.5 9ZM31.5 11.2883C42.6628 11.2883 51.712 20.3375 51.712 31.5C51.712 42.6628 42.6628 51.712 31.5 51.712C20.3372 51.712 11.288 42.6628 11.288 31.5C11.288 20.3372 20.3372 11.2883 31.5 11.2883Z" fill="#4000BF"/>
<path d="M31.9998 16C40.8365 16 48 22.9396 48 31.5C48 40.0604 40.8365 47 31.9998 47C23.1636 47 16 40.0604 16 31.5C15.9973 29.4732 16.4062 27.4657 17.2035 25.5919C18.3358 27.0858 20.1623 28.0557 22.222 28.0557C25.6588 28.0557 28.4444 25.3572 28.4444 22.0279C28.4444 20.0322 27.4435 18.2631 25.9011 17.1662C27.8354 16.394 29.9077 15.9975 31.9998 16Z" fill="url(#paint0_linear_1300_140)"/>
</g>
<defs>
<linearGradient id="paint0_linear_1300_140" x1="32.0002" y1="47" x2="32.0002" y2="16" gradientUnits="userSpaceOnUse">
<stop stop-color="#7400E1"/>
<stop offset="1" stop-color="#4000BF"/>
</linearGradient>
<clipPath id="clip0_1300_140">
<rect width="64" height="64" rx="32" fill="white"/>
</clipPath>
</defs>
</svg>
