<svg width="64" height="64" viewBox="0 0 64 64" fill="none" xmlns="http://www.w3.org/2000/svg">
<g clip-path="url(#clip0_1300_131)">
<path d="M49 0H15C6.71573 0 0 6.71573 0 15V49C0 57.2843 6.71573 64 15 64H49C57.2843 64 64 57.2843 64 49V15C64 6.71573 57.2843 0 49 0Z" fill="#99424F"/>
<path d="M50.79 31.6646C50.79 29.0153 48.9688 26.7864 46.5235 26.1497L52 10H24.8589L30.3483 26.2007C27.9792 26.8885 26.2345 29.079 26.2345 31.6772C26.2345 33.5877 27.1895 35.2816 28.6415 36.326C28.0685 37.1411 27.4062 37.8927 26.6546 38.6058C25.241 39.9304 23.6744 40.9492 21.9805 41.6243C20.4521 40.5927 19.7898 38.7714 20.3884 37.1411C22.7192 36.428 24.4131 34.25 24.4131 31.6899C24.4131 28.5441 21.8531 25.9968 18.72 25.9968C15.5741 25.9968 13.0141 28.5569 13.0141 31.7027C13.0141 33.2565 13.6509 34.6831 14.6698 35.7019C14.5807 35.8803 14.4915 36.0585 14.4023 36.2496C13.549 38.0073 12.5811 39.9942 12.2117 42.223C11.473 46.6806 12.6829 50.2595 15.5996 52.2847C17.2426 53.4181 19.0511 53.9913 20.9998 53.9913C24.3494 53.9913 27.75 52.3102 31.0359 50.6799C33.3796 49.5209 35.7993 48.311 38.181 47.725C39.06 47.5086 39.9769 47.3812 40.945 47.2411C42.9063 46.9609 44.9315 46.6679 46.7527 45.6108C48.8797 44.3755 50.3316 42.3121 50.752 39.9431C51.0702 38.1219 50.752 36.2879 49.9368 34.6831C50.4845 33.8042 50.79 32.7726 50.79 31.6646ZM48.3065 31.6646C48.3065 33.4348 46.8673 34.874 45.0969 34.874C43.3267 34.874 41.8875 33.4348 41.8875 31.6646C41.8875 31.0914 42.0401 30.5437 42.3076 30.0726C42.4097 29.8942 42.537 29.7158 42.6644 29.5629C42.7917 29.4103 42.9446 29.2702 43.11 29.1428L43.1228 29.1301C43.2246 29.0535 43.3394 28.9772 43.454 28.9007C43.454 28.9007 43.4668 28.9007 43.4668 28.8879C43.5176 28.8626 43.5686 28.8243 43.6194 28.7988C43.6322 28.7988 43.6449 28.7861 43.6577 28.7861C43.7087 28.7605 43.7723 28.7352 43.8361 28.7097C43.8997 28.6842 43.9634 28.6587 44.0143 28.6332C44.027 28.6332 44.0398 28.6204 44.0525 28.6204C44.1036 28.6079 44.1544 28.5824 44.2054 28.5696C44.2182 28.5696 44.2437 28.5569 44.2564 28.5569C44.32 28.5441 44.371 28.5313 44.4346 28.5186H44.4473L44.6385 28.4805C44.6512 28.4805 44.6765 28.4805 44.6893 28.4678C44.7403 28.4678 44.7914 28.455 44.8422 28.455H44.906C44.9695 28.455 45.0333 28.4423 45.1096 28.4423H45.2753C45.3263 28.4423 45.3643 28.4423 45.4154 28.455H45.4409C45.5427 28.4678 45.6446 28.4805 45.7464 28.5058C47.1983 28.8116 48.3065 30.1106 48.3065 31.6646ZM28.4123 12.5473H48.4466L43.8488 26.1114C43.6577 26.1497 43.4668 26.2134 43.2756 26.277L38.4359 16.4064L33.5832 26.2134C33.3923 26.1497 33.1884 26.1114 32.9847 26.0733L28.4123 12.5473ZM37.5187 30.5565C37.2768 29.3593 36.6655 28.2894 35.7993 27.4998L38.4359 22.1759L41.0976 27.6144C40.308 28.404 39.735 29.4103 39.5056 30.5565H37.5187ZM31.138 28.5441C31.2016 28.5313 31.2526 28.5186 31.3162 28.5058H31.3544C31.4055 28.4931 31.4563 28.4931 31.5073 28.4805H31.5581C31.6091 28.4805 31.6474 28.4678 31.6982 28.4678H32.1951C32.2459 28.4678 32.2842 28.4805 32.3225 28.4805C32.348 28.4805 32.3605 28.4805 32.386 28.4931C32.4371 28.5058 32.4753 28.5058 32.5261 28.5186C32.5389 28.5186 32.5517 28.5186 32.5772 28.5313C32.6407 28.5441 32.7045 28.5569 32.7553 28.5696H32.7681C32.8191 28.5824 32.8701 28.5951 32.921 28.6204C32.9337 28.6204 32.9465 28.6332 32.972 28.6332C33.0103 28.6459 33.0611 28.6587 33.0993 28.6842C33.1121 28.6842 33.1249 28.697 33.1376 28.697C33.1884 28.7225 33.2395 28.7352 33.2903 28.7605H33.303C33.3668 28.7861 33.4176 28.8116 33.4687 28.8498H33.4814C33.5324 28.8754 33.5832 28.9134 33.6343 28.9389C33.647 28.9389 33.647 28.9517 33.6598 28.9517C33.7106 28.9772 33.7489 29.0153 33.7999 29.0408L33.8124 29.0535C33.9653 29.1681 34.1054 29.2955 34.2455 29.4228L34.2583 29.4356C34.3857 29.5757 34.513 29.7286 34.6148 29.8942C34.9461 30.4036 35.137 31.0021 35.137 31.6519C35.137 33.4221 33.6978 34.8613 31.9276 34.8613C30.1572 34.8613 28.718 33.4221 28.718 31.6519C28.7053 30.1617 29.7369 28.9007 31.138 28.5441ZM18.6053 28.455C20.3757 28.455 21.8149 29.8942 21.8149 31.6646C21.8149 33.4348 20.3757 34.874 18.6053 34.874C16.835 34.874 15.3958 33.4348 15.3958 31.6646C15.3958 29.8942 16.835 28.455 18.6053 28.455ZM48.2302 39.4973C47.9499 41.1276 46.9436 42.554 45.4662 43.4075C44.078 44.2099 42.3714 44.4646 40.5755 44.7193C39.5949 44.8594 38.5633 45.0123 37.5697 45.2542C34.9206 45.9037 32.3733 47.1773 29.9025 48.4C26.7439 49.9666 23.7636 51.444 20.9998 51.444C19.5606 51.444 18.2742 51.0364 17.0515 50.1832C14.2495 48.2472 14.3896 44.6174 14.7208 42.6306C15.0264 40.7711 15.8798 39.0261 16.6949 37.3578C16.7459 37.2557 16.7841 37.1666 16.835 37.0648C17.1152 37.1666 17.4081 37.243 17.7138 37.294C17.2298 39.9942 18.6053 42.7834 21.28 44.1588L21.764 44.4135L22.2861 44.2226C24.515 43.433 26.5783 42.1464 28.3995 40.427C29.4313 39.4592 30.3101 38.4149 31.0487 37.2812C31.3417 37.3323 31.6347 37.345 31.9276 37.345C34.5768 37.345 36.8056 35.5236 37.4424 33.0783H39.5821C40.2189 35.5363 42.4477 37.345 45.0969 37.345C46.154 37.345 47.1348 37.052 47.9755 36.5554C48.3065 37.5104 48.4083 38.504 48.2302 39.4973Z" fill="white"/>
</g>
<defs>
<clipPath id="clip0_1300_131">
<rect width="64" height="64" rx="32" fill="white"/>
</clipPath>
</defs>
</svg>
