<svg width="33" height="32" viewBox="0 0 33 32" fill="none" xmlns="http://www.w3.org/2000/svg">
<rect x="0.600098" width="32" height="32" rx="16" fill="#F0DB4F"/>
<path d="M6.50012 20.5882L8.82181 19.1831C9.2698 19.9773 9.67725 20.6492 10.6546 20.6492C11.5915 20.6492 12.1822 20.2828 12.1822 18.8573V9.16308H15.0334V18.8976C15.0334 21.8506 13.3024 23.1948 10.7768 23.1948C8.49602 23.1948 7.17209 22.0136 6.5 20.588M16.582 20.2827L18.9035 18.9386C19.5146 19.9366 20.3089 20.6697 21.714 20.6697C22.8955 20.6697 23.6488 20.0791 23.6488 19.2644C23.6488 18.2869 22.8749 17.9406 21.5715 17.3705L20.8588 17.0649C18.8018 16.1893 17.4372 15.0895 17.4372 12.7678C17.4372 10.6293 19.0665 9 21.6124 9C23.4249 9 24.7283 9.63144 25.6651 11.281L23.4452 12.7067C22.9563 11.831 22.427 11.4848 21.6124 11.4848C20.7773 11.4848 20.2478 12.0143 20.2478 12.7067C20.2478 13.562 20.7773 13.9083 21.9992 14.4379L22.7119 14.7433C25.1354 15.7821 26.5 16.8409 26.5 19.2236C26.5 21.7899 24.4838 23.195 21.7752 23.195C19.1277 23.195 17.4169 21.9324 16.582 20.2827Z" fill="#323330"/>
</svg>
