<svg width="64" height="64" viewBox="0 0 64 64" fill="none" xmlns="http://www.w3.org/2000/svg">
<g clip-path="url(#clip0_1300_95)">
<path d="M49 0H15C6.71573 0 0 6.71573 0 15V49C0 57.2843 6.71573 64 15 64H49C57.2843 64 64 57.2843 64 49V15C64 6.71573 57.2843 0 49 0Z" fill="#023430"/>
<path d="M42.7933 26.8978C40.159 15.2774 34.669 12.1839 33.2685 9.99715C32.691 9.03383 32.1793 8.03247 31.7373 7C31.6633 8.0323 31.5273 8.68267 30.6498 9.4655C28.888 11.0363 21.4054 17.1339 20.7757 30.337C20.189 42.6475 29.8258 50.2382 31.0988 51.023C32.0778 51.5047 33.27 51.0332 33.8518 50.591C38.497 47.403 44.844 38.9035 42.7983 26.8978" fill="#10AA50"/>
<path d="M32.1363 44.4678C31.8938 47.5148 31.72 49.2853 31.104 51.0265C31.104 51.0265 31.5083 53.9273 31.7923 57H32.797C33.0368 54.8363 33.4025 52.6883 33.893 50.567C32.5923 49.927 32.1863 47.1415 32.1363 44.4678Z" fill="#B8C4C2"/>
<path d="M33.8912 50.5689C32.5767 49.9617 32.1965 47.1174 32.138 44.4679C32.463 40.0972 32.5577 35.7124 32.422 31.3317C32.353 29.0332 32.4545 10.0421 31.8557 7.26172C32.2655 8.20342 32.7372 9.11674 33.2685 9.99564C34.669 12.1841 40.1607 15.2776 42.7932 26.8979C44.844 38.8832 38.5315 47.3602 33.8912 50.5689Z" fill="#12924F"/>
</g>
<defs>
<clipPath id="clip0_1300_95">
<rect width="64" height="64" rx="32" fill="white"/>
</clipPath>
</defs>
</svg>
