<svg width="64" height="64" viewBox="0 0 64 64" fill="none" xmlns="http://www.w3.org/2000/svg">
<g clip-path="url(#clip0_1300_54)">
<path d="M49 0H15C6.71573 0 0 6.71573 0 15V49C0 57.2843 6.71573 64 15 64H49C57.2843 64 64 57.2843 64 49V15C64 6.71573 57.2843 0 49 0Z" fill="#242938"/>
<path d="M30.6902 12.0108C30.6042 12.0186 30.3304 12.046 30.084 12.0655C24.4027 12.5777 19.0811 15.6432 15.7107 20.3549C13.8338 22.9746 12.6334 25.9463 12.1799 29.0938C12.0196 30.1926 12 30.5172 12 32.0068C12 33.4966 12.0196 33.8212 12.1799 34.9198C13.2669 42.431 18.6119 48.742 25.8612 51.0802C27.1594 51.4986 28.5278 51.784 30.084 51.956C30.6902 52.0224 33.3098 52.0224 33.916 51.956C36.6022 51.6588 38.8778 50.9942 41.1222 49.8484C41.4662 49.6726 41.5328 49.6256 41.4858 49.5866C41.4546 49.563 39.9882 47.5962 38.2288 45.219L35.0304 40.8984L31.0224 34.9668C28.8172 31.7058 27.003 29.039 26.9872 29.039C26.9716 29.0352 26.956 31.6706 26.9482 34.8886C26.9364 40.523 26.9326 40.7498 26.8622 40.8826C26.7606 41.0742 26.6824 41.1524 26.518 41.2386C26.393 41.301 26.2835 41.3128 25.6931 41.3128H25.0166L24.8368 41.1994C24.7195 41.1252 24.6334 41.0274 24.5748 40.914L24.4927 40.738L24.5005 32.8984L24.5122 25.0548L24.6334 24.9023C24.696 24.8202 24.8289 24.7146 24.9228 24.6637C25.0831 24.5855 25.1457 24.5777 25.8221 24.5777C26.6198 24.5777 26.7526 24.609 26.96 24.8358C27.0186 24.8984 29.1886 28.1672 31.785 32.1046C34.3812 36.042 37.9316 41.4184 39.6754 44.0576L42.8426 48.8554L43.003 48.7498C44.4222 47.827 45.9238 46.5132 47.1124 45.1446C49.6422 42.2394 51.2728 38.697 51.8202 34.9198C51.9804 33.8212 52 33.4966 52 32.0068C52 30.5172 51.9804 30.1926 51.8202 29.0938C50.7332 21.5826 45.388 15.2718 38.1388 12.9335C36.8602 12.5191 35.4996 12.2336 33.9746 12.0616C33.5992 12.0225 31.0146 11.9795 30.6902 12.0108ZM38.8778 24.1085C39.0654 24.2024 39.218 24.3822 39.2728 24.5699C39.304 24.6716 39.3118 26.8456 39.304 31.7448L39.2922 38.7752L38.0528 36.8748L36.8094 34.9746V29.8642C36.8094 26.5602 36.825 24.7028 36.8484 24.6129C36.911 24.394 37.0478 24.2219 37.2356 24.1202C37.3958 24.0381 37.4546 24.0303 38.0684 24.0303C38.6472 24.0303 38.7488 24.0381 38.8778 24.1085Z" fill="white"/>
</g>
<defs>
<clipPath id="clip0_1300_54">
<rect width="64" height="64" rx="32" fill="white"/>
</clipPath>
</defs>
</svg>
