<svg width="33" height="32" viewBox="0 0 33 32" fill="none" xmlns="http://www.w3.org/2000/svg">
<rect x="0.399902" width="32" height="32" rx="16" fill="#242938"/>
<path d="M15.5976 5.23513C16.1441 4.92235 16.8559 4.9209 17.4019 5.23513C20.1488 6.78736 22.8966 8.33703 25.6431 9.89015C26.1597 10.1812 26.5052 10.756 26.4999 11.3513V20.6896C26.5038 21.3095 26.1242 21.8982 25.5792 22.1825C22.8413 23.7262 20.1047 25.2717 17.3672 26.8153C16.8096 27.1342 16.0834 27.1097 15.543 26.7646C14.7222 26.2888 13.9 25.8152 13.0791 25.3399C12.9113 25.2399 12.7222 25.1603 12.6038 24.9977C12.7085 24.8566 12.8958 24.839 13.0479 24.7773C13.3904 24.6683 13.7052 24.4934 14.0199 24.3238C14.0996 24.2693 14.1967 24.2902 14.273 24.3389C14.9749 24.7413 15.6707 25.1556 16.3749 25.5541C16.5251 25.6409 16.6772 25.5257 16.8057 25.4541C19.4924 23.9355 22.1824 22.4229 24.8687 20.9039C24.9683 20.856 25.0233 20.7503 25.0152 20.6413C25.017 17.5607 25.0156 14.4797 25.0162 11.399C25.0275 11.2755 24.9559 11.1617 24.844 11.111C22.1157 9.57448 19.3886 8.0357 16.6607 6.4988C16.6134 6.46628 16.5574 6.44883 16.5001 6.44873C16.4427 6.44863 16.3867 6.46589 16.3393 6.49824C13.6113 8.0357 10.8849 9.57604 8.15685 11.1124C8.04541 11.1632 7.97063 11.275 7.98385 11.399C7.98441 14.4797 7.98385 17.5607 7.98385 20.6418C7.97912 20.695 7.99081 20.7484 8.01735 20.7947C8.0439 20.8411 8.08401 20.8782 8.1323 20.9011C8.86019 21.3139 9.58908 21.7238 10.3175 22.1352C10.728 22.356 11.2318 22.4873 11.6839 22.3181C12.0829 22.175 12.3625 21.7678 12.355 21.3442C12.3588 18.2816 12.3531 15.2186 12.3578 12.1564C12.3478 12.0205 12.4768 11.9082 12.609 11.921C12.9588 11.9186 13.309 11.9163 13.6588 11.9219C13.8048 11.9186 13.9052 12.065 13.8872 12.2019C13.8858 15.284 13.891 18.366 13.8849 21.4479C13.8858 22.2693 13.5483 23.1631 12.7885 23.565C11.8527 24.0498 10.6958 23.947 9.77108 23.4821C8.97064 23.0825 8.20663 22.611 7.42041 22.183C6.87396 21.9002 6.49618 21.3092 6.50007 20.6898V11.3513C6.49429 10.7437 6.85352 10.1584 7.38618 9.87159C10.1236 8.32681 12.8607 6.78069 15.5976 5.23513Z" fill="#81CD39"/>
<path d="M17.9858 11.7038C19.1797 11.6269 20.4578 11.6582 21.5322 12.2465C22.3641 12.6971 22.8252 13.6431 22.8398 14.5673C22.8166 14.6918 22.6863 14.7606 22.5673 14.752C22.2209 14.7516 21.8744 14.7568 21.5281 14.7497C21.3811 14.7554 21.2957 14.6199 21.2773 14.49C21.1777 14.0478 20.9365 13.6099 20.5204 13.3966C19.8815 13.0768 19.1408 13.0929 18.4442 13.0996C17.9356 13.1265 17.3887 13.1706 16.9578 13.4696C16.627 13.6961 16.5266 14.1535 16.6446 14.5218C16.7559 14.7863 17.0611 14.8716 17.311 14.9503C18.7498 15.3266 20.2745 15.289 21.6858 15.7843C22.2702 15.9862 22.8417 16.3787 23.0417 16.9905C23.3034 17.8105 23.1887 18.7905 22.6053 19.4487C22.1322 19.9904 21.4432 20.2853 20.7559 20.4454C19.8417 20.6493 18.8929 20.6545 17.9645 20.564C17.0915 20.4644 16.1829 20.2351 15.509 19.6403C14.9327 19.1398 14.6512 18.3601 14.6791 17.6076C14.6858 17.4805 14.8124 17.3918 14.9341 17.4023C15.2829 17.3995 15.6318 17.3985 15.9806 17.4028C16.12 17.3928 16.2233 17.5133 16.2305 17.6446C16.2947 18.0658 16.453 18.5081 16.8205 18.7577C17.5294 19.2152 18.419 19.1838 19.2308 19.1966C19.9034 19.1668 20.6584 19.1578 21.2072 18.7133C21.4967 18.4597 21.5825 18.0355 21.5043 17.6706C21.4195 17.3625 21.0972 17.2189 20.8204 17.125C19.4 16.6758 17.8583 16.8388 16.4517 16.3307C15.8806 16.1289 15.3284 15.7474 15.109 15.1607C14.8029 14.3304 14.9431 13.3033 15.5877 12.6674C16.2161 12.0346 17.1233 11.7909 17.9858 11.7038Z" fill="#81CD39"/>
</svg>
