<svg width="33" height="32" viewBox="0 0 33 32" fill="none" xmlns="http://www.w3.org/2000/svg">
<rect x="0.800049" width="32" height="32" rx="16" fill="#FF6C37"/>
<path d="M22.0078 10.8265L15.6903 17.1441L13.9087 15.3626C20.1216 9.14989 20.7354 9.68889 22.0078 10.8265Z" fill="#EEEEEE"/>
<path d="M15.6902 17.2937C15.6452 17.2937 15.6153 17.2788 15.5853 17.2488L13.7888 15.4673C13.7746 15.4538 13.7633 15.4376 13.7556 15.4195C13.7479 15.4015 13.7439 15.3822 13.7439 15.3626C13.7439 15.343 13.7479 15.3236 13.7556 15.3056C13.7633 15.2876 13.7746 15.2713 13.7888 15.2578C20.1064 8.94006 20.7651 9.53894 22.0976 10.7366C22.1276 10.7666 22.1424 10.7966 22.1424 10.8414C22.1424 10.8864 22.1276 10.9163 22.0976 10.9461L15.7799 17.2488C15.7651 17.2788 15.7201 17.2937 15.6902 17.2937ZM14.1182 15.3626L15.6902 16.9344L21.7832 10.8414C20.6754 9.85331 19.9268 9.55394 14.1182 15.3626Z" fill="#FF6C37"/>
<path d="M17.5014 18.9556L15.7798 17.234L22.0974 10.9165C23.7892 12.623 21.259 15.3926 17.5014 18.9556Z" fill="#EEEEEE"/>
<path d="M17.5016 19.1053C17.4566 19.1053 17.4269 19.0903 17.3969 19.0603L15.6753 17.3386C15.6453 17.3088 15.6453 17.2788 15.6453 17.2339C15.6453 17.1889 15.6603 17.159 15.6903 17.129L22.0078 10.8115C22.0213 10.7973 22.0375 10.786 22.0556 10.7783C22.0736 10.7706 22.093 10.7666 22.1126 10.7666C22.1322 10.7666 22.1516 10.7706 22.1696 10.7783C22.1876 10.786 22.2039 10.7973 22.2174 10.8115C22.4085 10.9884 22.5596 11.2042 22.6603 11.4443C22.761 11.6845 22.8091 11.9435 22.8013 12.2038C22.7714 13.8654 20.885 15.9763 17.6214 19.0603C17.5765 19.0903 17.5315 19.1053 17.5016 19.1053ZM15.9896 17.2339C16.9476 18.2069 17.352 18.5963 17.5016 18.7459C20.0168 16.3506 22.4569 13.8954 22.4719 12.2038C22.4869 11.8145 22.3373 11.4253 22.0826 11.1258L15.9896 17.2339Z" fill="#FF6C37"/>
<path d="M13.9385 15.4075L15.211 16.68C15.2408 16.71 15.2408 16.7398 15.211 16.7698C15.196 16.7848 15.196 16.7848 15.1811 16.7848L12.5461 17.3537C12.4115 17.3687 12.2917 17.2788 12.2617 17.1441C12.2467 17.0692 12.2767 16.9945 12.3217 16.9495L13.8486 15.4225C13.8786 15.3925 13.9235 15.3775 13.9385 15.4075Z" fill="#EEEEEE"/>
<path d="M12.5013 17.5036C12.2768 17.5036 12.1121 17.3238 12.1121 17.0992C12.1121 16.9946 12.1571 16.8897 12.2319 16.8148L13.7588 15.2878C13.8487 15.213 13.9686 15.213 14.0583 15.2878L15.3308 16.5603C15.4206 16.6352 15.4206 16.77 15.3308 16.8597C15.3008 16.8897 15.2709 16.9047 15.2259 16.9197L12.5912 17.4886C12.5612 17.4886 12.5312 17.5036 12.5013 17.5036ZM13.8937 15.5722L12.4266 17.0393C12.3966 17.0693 12.3816 17.1142 12.4116 17.1591C12.4266 17.2041 12.4713 17.2191 12.5163 17.2041L14.9864 16.6651L13.8937 15.5722Z" fill="#FF6C37"/>
<path d="M25.3461 7.32353C24.388 6.39541 22.846 6.42528 21.9177 7.39841C20.9896 8.37141 21.0196 9.89841 21.9926 10.8267C22.3767 11.1978 22.8729 11.4314 23.4037 11.491C23.9345 11.5506 24.4701 11.4328 24.927 11.156L23.2202 9.44928L25.3461 7.32353Z" fill="#EEEEEE"/>
<path d="M23.6694 11.65C22.2472 11.65 21.0945 10.4972 21.0945 9.075C21.0945 7.65275 22.2472 6.5 23.6694 6.5C24.3281 6.5 24.9719 6.7545 25.4509 7.21863C25.4809 7.24863 25.4959 7.27863 25.4959 7.32338C25.4959 7.36838 25.4809 7.39837 25.4509 7.42825L23.4299 9.44925L25.0167 11.0361C25.0767 11.0961 25.0767 11.1859 25.0167 11.2458L24.9869 11.2758C24.5976 11.5151 24.1335 11.65 23.6694 11.65ZM23.6694 6.8145C22.4119 6.8145 21.3939 7.83238 21.4089 9.09C21.4089 10.3475 22.4267 11.3655 23.6844 11.3506C24.0287 11.3506 24.373 11.2756 24.6874 11.111L23.1155 9.55412C23.0855 9.52412 23.0706 9.49413 23.0706 9.44925C23.0706 9.40425 23.0855 9.37437 23.1155 9.3445L25.1216 7.33838C24.7174 6.99413 24.2084 6.8145 23.6694 6.8145Z" fill="#FF6C37"/>
<path d="M25.391 7.36838L25.3611 7.33838L23.2202 9.44925L24.912 11.141C25.0767 11.0361 25.2412 10.9165 25.3761 10.7818C25.6029 10.5596 25.7834 10.2946 25.907 10.0022C26.0307 9.70973 26.095 9.39567 26.0964 9.07817C26.0978 8.76068 26.0362 8.44606 25.9151 8.15257C25.794 7.85907 25.6158 7.59252 25.391 7.36838Z" fill="#EEEEEE"/>
<path d="M24.9272 11.3057C24.8822 11.3057 24.8523 11.2907 24.8223 11.2607L23.1157 9.55408C23.0857 9.52408 23.0708 9.4942 23.0708 9.44933C23.0708 9.40433 23.0857 9.37433 23.1157 9.34445L25.2414 7.21883C25.3014 7.15883 25.3912 7.15883 25.451 7.21883L25.496 7.24883C26.499 8.2517 26.4991 9.86858 25.5111 10.8867C25.3613 11.0363 25.1966 11.1711 25.0169 11.2758C24.9721 11.2908 24.9422 11.3057 24.9272 11.3057ZM23.43 9.44933L24.9422 10.9613C25.0619 10.8866 25.1817 10.7817 25.2714 10.6918C26.1248 9.83845 26.1697 8.4462 25.3463 7.54808L23.43 9.44933Z" fill="#FF6C37"/>
<path d="M22.2624 11.0959C22.0896 10.9233 21.8554 10.8264 21.6112 10.8264C21.367 10.8264 21.1327 10.9233 20.9599 11.0959L15.3159 16.7399L16.2592 17.683L22.2324 12.4434C22.6217 12.1139 22.6515 11.53 22.3223 11.1409C22.2923 11.1259 22.2773 11.1109 22.2624 11.0959Z" fill="#EEEEEE"/>
<path d="M16.244 17.8327C16.1992 17.8327 16.1692 17.8177 16.1392 17.7879L15.196 16.8447C15.1818 16.8312 15.1705 16.815 15.1628 16.7969C15.1551 16.7789 15.1511 16.7595 15.1511 16.7399C15.1511 16.7203 15.1551 16.7009 15.1628 16.6829C15.1705 16.6649 15.1818 16.6486 15.196 16.6351L20.8399 10.9911C20.939 10.8915 21.0568 10.8124 21.1866 10.7585C21.3163 10.7045 21.4555 10.6768 21.596 10.6768C21.7365 10.6768 21.8756 10.7045 22.0054 10.7585C22.1351 10.8124 22.2529 10.8915 22.352 10.9911C22.4517 11.0902 22.5308 11.208 22.5847 11.3378C22.6387 11.4675 22.6665 11.6067 22.6665 11.7472C22.6665 11.8877 22.6387 12.0268 22.5847 12.1566C22.5308 12.2863 22.4517 12.4042 22.352 12.5032L22.3072 12.5481L16.3338 17.7879C16.3189 17.8177 16.2889 17.8327 16.244 17.8327ZM15.5254 16.7399L16.259 17.4735L22.1275 12.3235C22.4568 12.054 22.4868 11.56 22.2173 11.2307C21.9478 10.9014 21.4538 10.8715 21.1244 11.1407C21.1095 11.1557 21.0945 11.1707 21.0645 11.1857L15.5254 16.7399Z" fill="#FF6C37"/>
<path d="M10.9892 23.1625C10.9292 23.1923 10.8993 23.2522 10.9142 23.3121L11.1688 24.3901C11.2288 24.5397 11.1388 24.7195 10.9742 24.7643C10.8544 24.8092 10.7198 24.7643 10.6449 24.6746L8.99805 23.0427L14.3725 17.6682L16.2289 17.6981L17.4864 18.9557C17.187 19.2102 15.3755 20.9617 10.9892 23.1625Z" fill="#EEEEEE"/>
<path d="M10.8695 24.9138C10.7498 24.9138 10.63 24.8689 10.5552 24.7792L8.92329 23.1473C8.89329 23.1174 8.87842 23.0874 8.87842 23.0426C8.87842 22.9977 8.89342 22.9677 8.92342 22.9377L14.2978 17.5633C14.3278 17.5333 14.3727 17.5183 14.4027 17.5183L16.259 17.5483C16.3039 17.5483 16.3338 17.5633 16.3637 17.5932L17.6213 18.8507C17.6513 18.8807 17.6662 18.9256 17.6662 18.9704C17.6662 19.0154 17.6513 19.0453 17.6063 19.0753L17.5015 19.1652C15.9147 20.5573 13.7588 21.9497 11.079 23.2821L11.3337 24.3449C11.3785 24.5396 11.2887 24.7492 11.109 24.8539C11.0192 24.8988 10.9444 24.9138 10.8695 24.9138ZM9.22267 23.0426L10.7648 24.5696C10.8095 24.6444 10.8994 24.6743 10.9743 24.6294C11.0492 24.5846 11.0792 24.4947 11.0343 24.4198L10.7798 23.3419C10.7498 23.2072 10.8095 23.0874 10.9294 23.0276C13.5792 21.6952 15.72 20.3179 17.2919 18.9556L16.1842 17.8477L14.4625 17.8177L9.22267 23.0426Z" fill="#FF6C37"/>
<path d="M7.72557 24.3302L9.01307 23.0427L10.9293 24.959L7.87532 24.7495C7.74057 24.7345 7.65069 24.6147 7.66569 24.4798C7.66569 24.42 7.68057 24.3601 7.72557 24.3302Z" fill="#EEEEEE"/>
<path d="M10.9294 25.0936L7.86041 24.8839C7.63578 24.8689 7.48603 24.6744 7.50103 24.4498C7.51603 24.3599 7.54603 24.2702 7.62091 24.2103L8.90841 22.9228C8.92192 22.9086 8.93817 22.8973 8.95617 22.8896C8.97418 22.8819 8.99357 22.8779 9.01316 22.8779C9.03275 22.8779 9.05214 22.8819 9.07014 22.8896C9.08815 22.8973 9.1044 22.9086 9.11791 22.9228L11.0342 24.8391C11.0792 24.8839 11.0942 24.9438 11.0642 25.0038C11.0342 25.0637 10.9892 25.0936 10.9294 25.0936ZM9.01316 23.2522L7.83041 24.4348C7.78553 24.4648 7.78553 24.5397 7.83041 24.5696C7.84541 24.5846 7.86041 24.5996 7.89041 24.5996L10.5402 24.7792L9.01316 23.2522ZM13.8487 18.3568C13.7588 18.3568 13.6989 18.2819 13.6989 18.2071C13.6989 18.1622 13.7139 18.1323 13.7439 18.1023L15.196 16.6502C15.2095 16.636 15.2258 16.6247 15.2438 16.6169C15.2618 16.6092 15.2812 16.6052 15.3008 16.6052C15.3205 16.6052 15.3399 16.6092 15.3579 16.6169C15.3759 16.6247 15.3921 16.636 15.4057 16.6502L16.3488 17.5933C16.3937 17.6382 16.4087 17.6831 16.3937 17.7431C16.3787 17.7879 16.3338 17.8328 16.274 17.8478L13.8787 18.3568H13.8487ZM15.3008 16.9646L14.3128 17.9527L15.9295 17.6082L15.3008 16.9646Z" fill="#FF6C37"/>
<path d="M16.229 17.6979L14.5823 18.0573C14.4625 18.0873 14.3427 18.0124 14.3128 17.8927C14.2978 17.8178 14.3128 17.7429 14.3727 17.683L15.2858 16.7698L16.229 17.6979Z" fill="#EEEEEE"/>
<path d="M14.5522 18.2071C14.503 18.2076 14.4541 18.1982 14.4084 18.1796C14.3628 18.161 14.3213 18.1334 14.2865 18.0986C14.2516 18.0637 14.2241 18.0222 14.2055 17.9766C14.1868 17.931 14.1775 17.8821 14.178 17.8328C14.178 17.7281 14.2229 17.6382 14.2827 17.5634L15.196 16.6502C15.2095 16.636 15.2258 16.6247 15.2438 16.6169C15.2618 16.6092 15.2812 16.6052 15.3008 16.6052C15.3204 16.6052 15.3398 16.6092 15.3578 16.6169C15.3759 16.6247 15.3921 16.636 15.4056 16.6502L16.3487 17.5933C16.3936 17.6382 16.4086 17.6831 16.3936 17.7431C16.3786 17.7879 16.3337 17.8328 16.274 17.8478L14.6271 18.2071H14.5522ZM15.3007 16.9646L14.4924 17.7729C14.4625 17.8029 14.4625 17.8328 14.4774 17.8628C14.4924 17.8927 14.5224 17.9077 14.5672 17.9077L15.9445 17.6082L15.3007 16.9646ZM25.406 8.8053C25.3761 8.71555 25.2712 8.67068 25.1814 8.70068C25.0916 8.73043 25.0467 8.8353 25.0767 8.92518C25.0767 8.94018 25.0916 8.95518 25.0916 8.97005C25.1814 9.1498 25.1516 9.3743 25.0317 9.53893C24.9719 9.61393 24.9869 9.71868 25.0467 9.77855C25.1216 9.8383 25.2264 9.82355 25.2862 9.74855C25.5109 9.46405 25.5557 9.1048 25.406 8.8053Z" fill="#FF6C37"/>
</svg>
