<svg width="64" height="64" viewBox="0 0 64 64" fill="none" xmlns="http://www.w3.org/2000/svg">
<g clip-path="url(#clip0_1300_189)">
<mask id="mask0_1300_189" style="mask-type:luminance" maskUnits="userSpaceOnUse" x="0" y="0" width="64" height="64">
<path d="M64 0H0V64H64V0Z" fill="white"/>
</mask>
<g mask="url(#mask0_1300_189)">
<path d="M49 0H15C6.71572 0 0 6.71572 0 15V49C0 57.2843 6.71572 64 15 64H49C57.2843 64 64 57.2843 64 49V15C64 6.71572 57.2843 0 49 0Z" fill="#242938"/>
</g>
<g clip-path="url(#clip1_1300_189)">
<path d="M50.8528 35.466C50.625 34.7759 50.0281 34.2953 49.2562 34.1799C48.8922 34.1256 48.4754 34.1488 47.9822 34.2504C47.1224 34.4278 46.4846 34.4954 46.0191 34.5084C47.7761 31.5419 49.2049 28.159 50.0274 24.9746C51.3574 19.8254 50.6466 17.4797 49.8161 16.4186C47.6182 13.6102 44.4115 12.1015 40.5429 12.0553C38.4792 12.0301 36.6675 12.4375 35.7224 12.7306C34.8425 12.5753 33.8964 12.4886 32.9036 12.4726C31.0426 12.4429 29.3984 12.8486 27.9934 13.6823C27.2156 13.4193 25.9673 13.0485 24.5256 12.8119C21.135 12.2553 18.4023 12.689 16.4034 14.1011C13.983 15.8108 12.861 18.7813 13.0685 22.9301C13.1344 24.2474 13.8712 28.2552 15.0314 32.0561C15.6982 34.2408 16.4092 36.055 17.1447 37.4488C18.1878 39.4253 19.3039 40.5892 20.5569 41.0072C21.2591 41.2411 22.5351 41.405 23.8771 40.2872C24.0472 40.4933 24.2742 40.698 24.5754 40.8881C24.9579 41.1293 25.4256 41.3265 25.8928 41.4433C27.5762 41.8641 29.153 41.7588 30.4983 41.169C30.5066 41.4082 30.513 41.6368 30.5184 41.8343C30.5273 42.1544 30.5362 42.4684 30.5479 42.762C30.6276 44.7472 30.7627 46.2908 31.1629 47.3708C31.1848 47.4302 31.2144 47.5207 31.2456 47.6168C31.4452 48.2281 31.779 49.2514 32.6284 50.0528C33.5079 50.883 34.5717 51.1376 35.5461 51.1376C36.0347 51.1376 36.501 51.0734 36.9099 50.9859C38.3676 50.6734 40.0231 50.1975 41.2207 48.4923C42.353 46.8802 42.9034 44.4522 43.003 40.6266C43.0159 40.5184 43.0278 40.415 43.0392 40.3166L43.063 40.1145L43.3297 40.1379L43.3984 40.1425C44.8831 40.2102 46.6985 39.8954 47.8134 39.3775C48.6944 38.9687 51.5175 37.4782 50.8528 35.466Z" fill="black"/>
<path d="M48.3142 35.857C43.8996 36.7677 43.5961 35.2731 43.5961 35.2731C48.257 28.3569 50.2055 19.5779 48.5242 17.4293C43.9369 11.5682 35.9962 14.3401 35.8637 14.412L35.8211 14.4197C34.9488 14.2386 33.9729 14.1308 32.8758 14.1129C30.8784 14.0802 29.3631 14.6366 28.2133 15.5085C28.2133 15.5085 14.048 9.67282 14.7069 22.8478C14.847 25.6506 18.7242 44.0555 23.3486 38.4964C25.0389 36.4636 26.6721 34.7448 26.6721 34.7448C27.4832 35.2836 28.4543 35.5585 29.4722 35.4598L29.5514 35.3927C29.5267 35.6451 29.538 35.8919 29.583 36.1842C28.3916 37.5152 28.7418 37.7489 26.3602 38.2392C23.9504 38.7358 25.366 39.6199 26.2903 39.8512C27.4109 40.1313 30.0032 40.5282 31.7548 38.0762L31.685 38.356C32.1517 38.7299 32.4794 40.7878 32.4245 42.6535C32.3696 44.5191 32.3329 45.8 32.7006 46.8004C33.0686 47.8009 33.4351 50.052 36.5659 49.3812C39.1818 48.8205 40.5375 47.3678 40.7262 44.9444C40.8599 43.2216 41.1629 43.4763 41.1819 41.936L41.4249 41.2069C41.705 38.8715 41.4694 38.118 43.081 38.4685L43.4729 38.5029C44.6589 38.5568 46.2115 38.3121 47.1228 37.8886C49.0848 36.978 50.2486 35.4576 48.3139 35.857H48.3142Z" fill="#336791"/>
<path d="M29.0426 24.1012C28.6448 24.0458 28.2846 24.097 28.1023 24.2351C27.9999 24.3127 27.9681 24.4026 27.9595 24.4645C27.9366 24.6286 28.0515 24.81 28.1222 24.9035C28.322 25.1683 28.6138 25.3503 28.9027 25.3904C28.9445 25.3963 28.9862 25.399 29.0277 25.399C29.5093 25.399 29.9474 25.0239 29.986 24.747C30.0342 24.4003 29.5309 24.169 29.0426 24.1012ZM42.2215 24.1122C42.1835 23.8404 41.6999 23.7629 41.2409 23.8267C40.7826 23.8905 40.3381 24.0975 40.3753 24.3698C40.4049 24.5817 40.7875 24.9433 41.2402 24.9433C41.2785 24.9433 41.3171 24.9407 41.356 24.9352C41.6582 24.8934 41.88 24.7015 41.9854 24.5909C42.1457 24.4222 42.2386 24.2343 42.2215 24.1122Z" fill="white"/>
<path d="M49.7832 35.7539C49.6149 35.2449 49.0731 35.0812 48.173 35.267C45.5004 35.8186 44.5432 35.4365 44.229 35.2051C46.3064 32.0404 48.0153 28.2149 48.9373 24.6457C49.374 22.955 49.6152 21.3849 49.6349 20.105C49.6568 18.7004 49.4175 17.6681 48.9241 17.0376C46.9347 14.4956 44.0149 13.132 40.4806 13.0946C38.0509 13.0673 35.998 13.6891 35.6 13.864C34.7619 13.6556 33.8483 13.5276 32.8536 13.5113C31.0296 13.4817 29.4529 13.9185 28.1476 14.8086C27.5805 14.5976 26.1152 14.0945 24.3231 13.8058C21.2249 13.307 18.7629 13.685 17.006 14.9296C14.9096 16.4149 13.9418 19.0698 14.1293 22.8205C14.1924 24.0824 14.9114 27.9643 16.0461 31.682C17.5396 36.5751 19.1632 39.345 20.8715 39.9149C21.0714 39.9815 21.3019 40.0282 21.5562 40.0282C22.1793 40.0282 22.9433 39.7473 23.7382 38.7917C24.7078 37.6286 25.7107 36.4938 26.7457 35.3886C27.4173 35.749 28.155 35.9503 28.9095 35.9705C28.911 35.9902 28.9129 36.01 28.9147 36.0295C28.7848 36.1844 28.6576 36.3415 28.5332 36.5008C28.0104 37.1645 27.9016 37.3027 26.2188 37.6492C25.7401 37.748 24.4687 38.01 24.45 38.9012C24.4298 39.875 25.9529 40.2839 26.1264 40.3273C26.7312 40.4787 27.3138 40.5533 27.8694 40.5533C29.2206 40.5533 30.4098 40.1092 31.3601 39.2499C31.3308 42.7213 31.4755 46.1419 31.8923 47.184C32.2338 48.0373 33.0677 50.1224 35.7018 50.1222C36.0884 50.1222 36.5138 50.0772 36.9818 49.9769C39.731 49.3876 40.9249 48.1725 41.3867 45.4936C41.6339 44.0619 42.0579 40.6433 42.2574 38.8095C42.6784 38.9409 43.2204 39.001 43.8062 39.0008C45.0282 39.0008 46.4382 38.7412 47.3224 38.3308C48.3158 37.8694 50.1083 36.7374 49.7832 35.7539ZM43.2362 23.3623C43.2272 23.9037 43.1527 24.3952 43.0737 24.9082C42.9886 25.4599 42.9008 26.0304 42.8787 26.7228C42.8568 27.3967 42.941 28.0973 43.0223 28.775C43.1868 30.1436 43.3556 31.5525 42.7023 32.9428C42.5938 32.7505 42.4971 32.5518 42.4129 32.3477C42.3317 32.1509 42.1553 31.8347 41.9111 31.3971C40.9613 29.6936 38.7369 25.7045 39.8756 24.0768C40.2148 23.5923 41.0756 23.0941 43.2362 23.3623ZM40.6172 14.1908C43.784 14.2607 46.289 15.4454 48.0625 17.7118C49.4228 19.4501 47.9249 27.3599 43.5886 34.1837C43.545 34.1283 43.5012 34.073 43.4571 34.0179L43.4022 33.9493C44.5227 32.0988 44.3037 30.2678 44.1086 28.6445C44.0284 27.9783 43.9527 27.3491 43.972 26.758C43.9919 26.1316 44.0748 25.5942 44.1549 25.0747C44.2533 24.4345 44.3535 23.772 44.3259 22.9911C44.3466 22.9092 44.3549 22.8124 44.344 22.6975C44.2735 21.9486 43.4185 19.7074 41.6759 17.6788C40.7226 16.5692 39.3325 15.3276 37.4344 14.4901C38.2508 14.3209 39.3672 14.1631 40.6172 14.1908ZM22.897 38.0922C22.0213 39.1453 21.4165 38.9434 21.2176 38.8772C19.9218 38.4449 18.4181 35.706 17.0924 31.3627C15.9453 27.6045 15.2749 23.8255 15.2218 22.7658C15.0543 19.4143 15.8667 17.0787 17.6366 15.8235C20.5168 13.781 25.2523 15.0035 27.1551 15.6236C27.1278 15.6506 27.0993 15.6758 27.0723 15.7033C23.9498 18.8567 24.0238 24.2444 24.0315 24.5737C24.0312 24.7008 24.0419 24.8807 24.0565 25.1282C24.1102 26.0344 24.2103 27.7209 23.9431 29.6309C23.6949 31.4057 24.242 33.1429 25.4439 34.397C25.5673 34.5255 25.6969 34.6478 25.8324 34.7634C25.2974 35.3363 24.1347 36.6034 22.897 38.0922ZM26.2338 33.6402C25.2651 32.6293 24.8251 31.2233 25.0265 29.7823C25.3086 27.7647 25.2045 26.0075 25.1485 25.0634C25.1407 24.9313 25.1337 24.8155 25.1297 24.7243C25.5858 24.3198 27.6997 23.1872 29.2073 23.5326C29.8951 23.6901 30.3143 24.1586 30.4886 24.9643C31.3905 29.1358 30.6079 30.8745 29.9791 32.2717C29.8496 32.5595 29.7271 32.8316 29.6226 33.113L29.5415 33.3307C29.3364 33.8808 29.1455 34.3923 29.0272 34.878C27.9973 34.875 26.9955 34.435 26.2338 33.64V33.6402ZM26.3918 39.2659C26.0911 39.1908 25.8207 39.0603 25.662 38.9521C25.7945 38.8898 26.0304 38.8049 26.4395 38.7206C28.4192 38.3131 28.725 38.0254 29.3927 37.1777C29.5457 36.9833 29.7192 36.763 29.9595 36.4946L29.9598 36.4943C30.3177 36.0935 30.4814 36.1615 30.7783 36.2847C31.0189 36.3842 31.2533 36.6858 31.3483 37.0177C31.3933 37.1744 31.4438 37.4719 31.2786 37.7035C29.8838 39.6563 27.8514 39.6312 26.3918 39.2659ZM36.7526 48.9072C34.3307 49.4262 33.4732 48.1904 32.9081 46.7778C32.5434 45.8658 32.3641 41.7531 32.4913 37.2114C32.4929 37.151 32.4843 37.0927 32.4677 37.0377C32.4528 36.9293 32.4302 36.822 32.4 36.7168C32.2109 36.056 31.75 35.5032 31.1971 35.274C30.9774 35.183 30.5742 35.016 30.0897 35.14C30.193 34.7142 30.3722 34.2335 30.5665 33.7129L30.648 33.4939C30.7397 33.2471 30.8549 32.9913 30.9766 32.7206C31.6347 31.2588 32.5358 29.2565 31.5578 24.7332C31.1914 23.0389 29.968 22.2115 28.1134 22.4037C27.0016 22.5188 25.9844 22.9673 25.477 23.2246C25.3679 23.2798 25.2682 23.3332 25.175 23.3852C25.3166 21.6782 25.8515 18.4879 27.8528 16.4695C29.1129 15.1989 30.7909 14.5713 32.8355 14.6051C36.8641 14.671 39.4475 16.7385 40.9055 18.4614C42.1618 19.9459 42.8421 21.4414 43.1136 22.248C41.0719 22.0404 39.6832 22.4434 38.9793 23.4498C37.4479 25.6389 39.8171 29.8878 40.9558 31.9299C41.1646 32.3041 41.3448 32.6275 41.4016 32.765C41.7723 33.6636 42.2524 34.2636 42.6029 34.7015C42.7103 34.8357 42.8145 34.9658 42.8938 35.0795C42.2754 35.2578 41.1646 35.6697 41.2659 37.7287C41.1842 38.7618 40.6037 43.5988 40.3088 45.3078C39.9194 47.5655 39.0886 48.4064 36.7526 48.9074V48.9072ZM46.8618 37.3386C46.2295 37.6321 45.1713 37.8522 44.1661 37.8996C43.0557 37.9515 42.4905 37.7752 42.3575 37.6667C42.2951 36.3836 42.7727 36.2495 43.2781 36.1076C43.3575 36.0854 43.435 36.0635 43.5098 36.0374C43.5563 36.0753 43.6072 36.1128 43.663 36.1496C44.5554 36.7386 46.1471 36.8022 48.3943 36.3383L48.4189 36.3334C48.1158 36.6168 47.5972 36.9971 46.8618 37.3386Z" fill="white"/>
</g>
</g>
<defs>
<clipPath id="clip0_1300_189">
<rect width="64" height="64" rx="32" fill="white"/>
</clipPath>
<clipPath id="clip1_1300_189">
<rect width="38" height="39.1914" fill="white" transform="translate(13 12)"/>
</clipPath>
</defs>
</svg>
