<svg width="64" height="64" viewBox="0 0 64 64" fill="none" xmlns="http://www.w3.org/2000/svg">
<g clip-path="url(#clip0_1300_156)">
<mask id="mask0_1300_156" style="mask-type:luminance" maskUnits="userSpaceOnUse" x="0" y="0" width="64" height="64">
<path d="M64 0H0V64H64V0Z" fill="white"/>
</mask>
<g mask="url(#mask0_1300_156)">
<path d="M49 0H15C6.71572 0 0 6.71572 0 15V49C0 57.2843 6.71572 64 15 64H49C57.2843 64 64 57.2843 64 49V15C64 6.71572 57.2843 0 49 0Z" fill="#242938"/>
</g>
<path d="M37.6213 36.7163L36.7006 38.315C36.4232 38.7966 35.9097 39.0935 35.354 39.0935H28.3007C27.745 39.0935 27.2315 38.7966 26.9541 38.315L26.0333 36.7163H37.6213ZM40.1989 32.2406L38.5754 35.0595H25.0792L23.4558 32.2406H40.1989ZM38.6351 27.864L40.2015 30.5839H23.4532L25.0196 27.864H38.6351ZM35.354 23.7266C35.9097 23.7266 36.4232 24.0234 36.7006 24.505L37.6809 26.2072H25.9738L26.9541 24.505C27.2315 24.0234 27.745 23.7266 28.3007 23.7266H35.354Z" fill="#00435B"/>
<path d="M18.0355 22.9847C17.2542 19.1961 17.0865 16.2903 17.5916 14.1803C17.8919 12.9253 18.4411 11.9016 19.2761 11.1629C20.1577 10.3832 21.2723 10.0005 22.5246 10.0005C24.5906 10.0005 26.7625 10.9426 29.0836 12.7324C30.0303 13.4625 31.0128 14.3424 32.0333 15.3727C32.1145 15.2681 32.2063 15.1695 32.3086 15.0784C35.1935 12.5075 37.6224 10.9102 39.6998 10.2943C40.935 9.92808 42.0948 9.8932 43.1509 10.2486C44.2657 10.6238 45.1539 11.3993 45.7806 12.4855C46.8149 14.2782 47.0876 16.6338 46.702 19.5424C46.5449 20.7279 46.2762 22.0194 45.8965 23.4186C46.0398 23.4359 46.1833 23.4677 46.3255 23.5148C49.9858 24.7278 52.5777 26.0322 54.147 27.5229C55.0806 28.4099 55.6903 29.3973 55.9107 30.4903C56.1433 31.644 55.9165 32.8012 55.2905 33.8866C54.2582 35.6767 52.36 37.0886 49.6558 38.2068C48.57 38.6559 47.3415 39.0625 45.9688 39.4283C46.0315 39.5697 46.08 39.7199 46.1125 39.8774C46.8939 43.666 47.0615 46.5719 46.5565 48.6819C46.2561 49.9368 45.707 50.9606 44.872 51.6992C43.9904 52.479 42.8758 52.8616 41.6235 52.8616C39.5574 52.8616 37.3856 51.9195 35.0645 50.1297C34.1077 49.3919 33.1143 48.501 32.0822 47.4565C31.976 47.6226 31.8456 47.777 31.6914 47.9144C28.8065 50.4853 26.3776 52.0826 24.3002 52.6985C23.065 53.0647 21.9052 53.0996 20.8491 52.7442C19.7343 52.369 18.8461 51.5935 18.2194 50.5073C17.1851 48.7146 16.9124 46.359 17.298 43.4504C17.4608 42.222 17.7434 40.8799 18.1451 39.422C17.9881 39.4061 17.8304 39.3729 17.6745 39.3212C14.0142 38.1082 11.4223 36.8038 9.85305 35.3131C8.91941 34.4262 8.30973 33.4387 8.08934 32.3457C7.85671 31.192 8.08354 30.0348 8.7095 28.9494C9.74184 27.1593 11.64 25.7475 14.3442 24.6292C15.4624 24.1668 16.7319 23.7493 18.1543 23.3752C18.1036 23.2511 18.0636 23.1207 18.0355 22.9847Z" fill="#002B3B"/>
<path d="M43.5588 40.2501C43.9228 40.1856 44.2715 40.4189 44.3528 40.7769L44.3572 40.7981L44.396 40.9995C45.6541 47.6139 44.7679 50.9211 41.7373 50.9211C38.7722 50.9211 34.9977 48.0991 30.4137 42.455C30.3124 42.3303 30.2578 42.1742 30.2592 42.0136C30.2625 41.6393 30.5628 41.3372 30.9344 41.3291L30.9559 41.329L31.1973 41.3307C33.1262 41.3412 35.0015 41.2739 36.823 41.1289C38.9732 40.9578 41.2184 40.6648 43.5588 40.2501ZM22.7461 35.2503L22.7577 35.2699L22.8788 35.4813C23.8495 37.1688 24.8608 38.7705 25.9127 40.2863C27.1516 42.0714 28.5447 43.8785 30.0921 45.7077C30.3315 45.9907 30.3042 46.4107 30.0341 46.6605L30.0165 46.6762L29.8608 46.8103C24.741 51.1972 21.4133 52.0729 19.8777 49.4376C18.3746 46.858 18.9196 42.1675 21.5125 35.3662C21.5695 35.2168 21.6766 35.0917 21.8155 35.0124C22.1402 34.8271 22.5518 34.9341 22.7461 35.2503ZM46.1569 25.4902L46.1779 25.497L46.3706 25.5636C52.6902 27.7619 55.0912 30.1778 53.5735 32.8113C52.0892 35.3869 47.7742 37.2621 40.6283 38.437C40.469 38.4632 40.3055 38.4328 40.1663 38.3509C39.8374 38.1576 39.7276 37.7343 39.9209 37.4055C40.9444 35.6645 41.8662 33.9323 42.6863 32.2087C43.6164 30.2539 44.4892 28.1557 45.3048 25.9142C45.4285 25.5743 45.7917 25.3897 46.1358 25.4841L46.1569 25.4902ZM23.8337 24.3833C24.1625 24.5767 24.2724 24.9999 24.0791 25.3287C23.0556 27.0697 22.1338 28.802 21.3137 30.5256C20.3836 32.4804 19.5107 34.5785 18.6951 36.8201C18.569 37.1669 18.1933 37.352 17.8431 37.2441L17.8221 37.2373L17.6294 37.1707C11.3098 34.9723 8.90877 32.5564 10.4264 29.923C11.9107 27.3474 16.2258 25.4721 23.3716 24.2972C23.531 24.271 23.6945 24.3015 23.8337 24.3833ZM44.1223 13.5557C45.6254 16.1353 45.0804 20.8258 42.4874 27.627C42.4304 27.7765 42.3234 27.9015 42.1844 27.9808C41.8598 28.1661 41.4482 28.0591 41.2539 27.743L41.2423 27.7234L41.1211 27.512C40.1505 25.8245 39.1392 24.2228 38.0872 22.707C36.8484 20.9219 35.4553 19.1147 33.9078 17.2855C33.6685 17.0026 33.6958 16.5825 33.9659 16.3327L33.9834 16.317L34.1391 16.183C39.259 11.7961 42.5867 10.9203 44.1223 13.5557ZM22.5216 11.9858C25.4867 11.9858 29.2613 14.8079 33.8452 20.4519C33.9465 20.5766 34.0012 20.7327 33.9998 20.8934C33.9965 21.2676 33.6962 21.5697 33.3246 21.5778L33.3031 21.578L33.0617 21.5762C31.1327 21.5658 29.2575 21.633 27.436 21.778C25.2858 21.9491 23.0405 22.2421 20.7001 22.6569C20.3362 22.7213 19.9874 22.488 19.9062 22.13L19.9017 22.1088L19.8629 21.9074C18.6048 15.293 19.4911 11.9858 22.5216 11.9858Z" fill="#FF4154"/>
<path d="M28.8677 23.813H34.7882C35.6541 23.813 36.4538 24.2761 36.8847 25.027L39.8575 30.2069C40.2851 30.952 40.2851 31.8682 39.8575 32.6133L36.8847 37.7932C36.4538 38.5441 35.6541 39.0072 34.7882 39.0072H28.8677C28.0019 39.0072 27.2022 38.5441 26.7712 37.7932L23.7984 32.6133C23.3708 31.8682 23.3708 30.952 23.7984 30.2069L26.7712 25.027C27.2022 24.2761 28.0019 23.813 28.8677 23.813ZM33.8859 25.3764C34.7522 25.3764 35.5522 25.84 35.983 26.5915L38.056 30.208C38.4828 30.9526 38.4828 31.8676 38.056 32.6122L35.983 36.2287C35.5522 36.9803 34.7522 37.4438 33.8859 37.4438H29.7701C28.9038 37.4438 28.1037 36.9803 27.6729 36.2287L25.5999 32.6122C25.1731 31.8676 25.1731 30.9526 25.5999 30.208L27.6729 26.5915C28.1037 25.84 28.9038 25.3764 29.7701 25.3764H33.8859ZM32.9133 27.0863H30.7426C29.8772 27.0863 29.0778 27.549 28.6467 28.2994L27.5513 30.2059C27.1228 30.9515 27.1228 31.8687 27.5513 32.6144L28.6467 34.5209C29.0778 35.2712 29.8772 35.7339 30.7426 35.7339H32.9133C33.7787 35.7339 34.5781 35.2712 35.0092 34.5209L36.1046 32.6144C36.5331 31.8687 36.5331 30.9515 36.1046 30.2059L35.0092 28.2994C34.5781 27.549 33.7787 27.0863 32.9133 27.0863ZM31.9768 28.723C32.8416 28.723 33.6405 29.185 34.0718 29.9345L34.2271 30.2043C34.6568 30.9508 34.6568 31.8695 34.2271 32.6159L34.0718 32.8858C33.6405 33.6352 32.8416 34.0972 31.9768 34.0972H31.6791C30.8144 34.0972 30.0155 33.6352 29.5841 32.8858L29.4288 32.6159C28.9991 31.8695 28.9991 30.9508 29.4288 30.2043L29.5841 29.9345C30.0155 29.185 30.8144 28.723 31.6791 28.723H31.9768ZM31.8284 30.3353C31.4435 30.3353 31.0885 30.5401 30.8964 30.8727C30.7042 31.2052 30.7042 31.615 30.8964 31.9475C31.0885 32.2801 31.4435 32.4849 31.8276 32.4849C32.2125 32.4849 32.5674 32.2801 32.7596 31.9475C32.9517 31.615 32.9517 31.2052 32.7596 30.8727C32.5674 30.5401 32.2125 30.3353 31.8284 30.3353ZM23.1079 31.4101H25.0431Z" fill="#FFD94C"/>
</g>
<defs>
<clipPath id="clip0_1300_156">
<rect width="64" height="64" rx="32" fill="white"/>
</clipPath>
</defs>
</svg>
