<svg width="64" height="64" viewBox="0 0 64 64" fill="none" xmlns="http://www.w3.org/2000/svg">
<g clip-path="url(#clip0_1300_100)">
<rect width="64" height="64" rx="32" fill="url(#paint0_linear_1300_100)"/>
<mask id="mask0_1300_100" style="mask-type:luminance" maskUnits="userSpaceOnUse" x="0" y="0" width="64" height="64">
<path d="M49 0H15C6.71573 0 0 6.71573 0 15V49C0 57.2843 6.71573 64 15 64H49C57.2843 64 64 57.2843 64 49V15C64 6.71573 57.2843 0 49 0Z" fill="white"/>
</mask>
<g mask="url(#mask0_1300_100)">
<path d="M54.1405 14.9205C52.3174 13.2966 50.11 13.9489 47.9315 15.8802C47.6082 16.1671 47.2855 16.4854 46.9643 16.8254C43.2376 20.7745 39.7784 28.0893 38.7036 33.6757C39.1223 34.5238 39.4493 35.606 39.6646 36.4327C39.7199 36.6448 39.7696 36.8439 39.8095 37.0132C39.904 37.4141 39.9548 37.6739 39.9548 37.6739C39.9548 37.6739 39.9215 37.5476 39.7844 37.1504C39.7583 37.0743 39.7293 36.9913 39.6948 36.8934C39.68 36.8529 39.6597 36.8038 39.6372 36.7514C39.3942 36.1869 38.7216 34.9955 38.4258 34.4767C38.1726 35.2226 37.949 35.9203 37.7616 36.5516C38.6159 38.1131 39.1366 40.7891 39.1366 40.7891C39.1366 40.7891 39.0916 40.6156 38.8769 40.0104C38.6862 39.4749 37.7369 37.8134 37.5119 37.4251C37.1273 38.8436 36.9745 39.8013 37.1123 40.0344C37.3799 40.4863 37.6347 41.2659 37.8586 42.128C38.3643 44.0703 38.7156 46.4347 38.7156 46.4347C38.7156 46.4347 38.7271 46.5914 38.746 46.8326C38.6759 48.4636 38.7179 50.1547 38.8445 51.6832C39.0119 53.7065 39.3273 55.4448 39.7293 56.375L40.0021 56.2263C39.4118 54.3937 39.172 51.9918 39.277 49.2217C39.4358 44.9878 40.4114 39.8818 42.2136 34.5599C45.2586 26.5262 49.4834 20.0804 53.35 17.0021C49.8258 20.1813 45.056 30.4719 43.6281 34.2826C42.0295 38.5499 40.8965 42.5546 40.2138 46.3912C41.3918 42.7944 45.2009 41.2483 45.2009 41.2483C45.2009 41.2483 47.0691 38.9469 49.2524 35.6589C47.9446 35.9568 45.7971 36.4668 45.0777 36.7687C44.0168 37.2133 43.7309 37.3649 43.7309 37.3649C43.7309 37.3649 47.1678 35.2743 50.1164 34.3278C54.1716 27.9481 58.5895 18.885 54.1405 14.9205Z" fill="#003B57"/>
<path d="M13.3475 17.1875C12.7732 17.1875 12.3062 17.3553 11.9482 17.6906C11.5901 18.0262 11.4085 18.4662 11.4085 19.0053C11.4085 19.2846 11.4536 19.5393 11.5425 19.7727C11.6313 20.0066 11.7697 20.2233 11.9556 20.4191C12.1415 20.615 12.5137 20.8812 13.0684 21.2196C13.749 21.6296 14.1945 21.9623 14.4082 22.2221C14.6222 22.4817 14.7283 22.7538 14.7283 23.0374C14.7283 23.4171 14.6016 23.7202 14.3413 23.9481C14.0804 24.176 13.7316 24.2896 13.2992 24.2896C12.843 24.2896 12.4457 24.1309 12.1045 23.8159C11.7633 23.5004 11.591 23.083 11.5871 22.56H11.375V24.4585H11.5871C11.6519 24.2788 11.7415 24.1868 11.8588 24.1868C11.9153 24.1868 12.0474 24.2252 12.2533 24.2969C12.7543 24.4728 13.1656 24.5577 13.489 24.5577C14.0462 24.5577 14.5219 24.3651 14.9181 23.9738C15.3138 23.5826 15.5136 23.1108 15.5136 22.56C15.5136 22.1328 15.3817 21.7528 15.1228 21.4216C14.8639 21.0899 14.3605 20.7042 13.6081 20.2612C12.9606 19.8774 12.5404 19.5648 12.3464 19.3211C12.1521 19.0777 12.0524 18.8086 12.0524 18.5132C12.0524 18.1937 12.1713 17.9371 12.4059 17.7457C12.6406 17.5541 12.948 17.4592 13.3326 17.4592C13.7656 17.4592 14.1264 17.586 14.412 17.8412C14.6972 18.0967 14.8622 18.4509 14.9107 18.9061H15.1228V17.2609H14.9256C14.9015 17.3448 14.8791 17.3984 14.8586 17.4225C14.8386 17.4465 14.8002 17.4592 14.7432 17.4592C14.6746 17.4592 14.5522 17.4307 14.3785 17.3748C14.0063 17.2511 13.6632 17.1875 13.3475 17.1875ZM20.2812 17.1875C19.5814 17.1875 18.946 17.3503 18.372 17.6759C17.797 18.001 17.3419 18.4524 17.0061 19.0273C16.6704 19.6022 16.5036 20.2127 16.5036 20.8634C16.5036 21.7376 16.7936 22.5164 17.3782 23.199C17.9631 23.8811 18.664 24.3062 19.4773 24.4696C19.6633 24.5651 19.9293 24.8119 20.2775 25.2113C20.6699 25.6621 21.0019 25.9872 21.2749 26.1808C21.5477 26.3745 21.8421 26.5165 22.1533 26.6105C22.4647 26.704 22.8015 26.75 23.1656 26.75C23.6066 26.75 24.0014 26.6744 24.3491 26.5186L24.271 26.3277C24.0691 26.3995 23.8538 26.4342 23.6271 26.4342C23.3194 26.4342 23.0084 26.3341 22.6967 26.1331C22.3854 25.9316 21.9961 25.5471 21.5317 24.98C21.3135 24.7082 21.1628 24.5368 21.0777 24.4696C21.9675 24.2981 22.6992 23.8726 23.2698 23.1916C23.8403 22.5109 24.1258 21.7341 24.1258 20.8634C24.1258 19.8296 23.7531 18.9608 23.013 18.2524C22.2724 17.544 21.3616 17.1875 20.2812 17.1875ZM24.6097 17.1875L24.6208 17.4115C25.0868 17.4115 25.3478 17.5469 25.4061 17.8191C25.4278 17.9165 25.4378 18.0963 25.4396 18.3553L25.4359 23.3091C25.432 23.6791 25.3786 23.9153 25.2759 24.0179C25.173 24.1197 24.9991 24.1834 24.7474 24.2088L24.7362 24.4328H29.381L29.5001 23.3091H29.288C29.2274 23.6152 29.0885 23.8345 28.8674 23.9591C28.6456 24.0846 28.2537 24.1464 27.6875 24.1464H27.2484C26.739 24.1464 26.4442 23.9647 26.3664 23.5992C26.3503 23.5269 26.3448 23.4494 26.344 23.3642L26.3626 18.3553C26.3625 17.9859 26.4098 17.7383 26.5078 17.6172C26.6068 17.4964 26.7853 17.4288 27.0436 17.4115L27.0326 17.1875H24.6097ZM20.3557 17.4592C21.145 17.4592 21.7894 17.766 22.2873 18.3846C22.7849 19.0035 23.0316 19.8518 23.0316 20.9258C23.0316 21.9436 22.7814 22.7586 22.2798 23.3715C21.7783 23.9843 21.1107 24.2896 20.2812 24.2896C19.4843 24.2896 18.8381 23.9748 18.3422 23.3422C17.8467 22.7095 17.6015 21.8881 17.6015 20.8781C17.6015 19.8402 17.8497 19.0093 18.3496 18.3883C18.8492 17.768 19.5183 17.4592 20.3557 17.4592ZM31.0372 18.5242C30.9239 18.5242 30.8375 18.5619 30.773 18.638C30.7068 18.7138 30.6866 18.8056 30.7096 18.9171C30.7319 19.0253 30.7938 19.1201 30.8921 19.1999C30.9898 19.2796 31.0951 19.3211 31.2084 19.3211C31.3179 19.3211 31.4015 19.2796 31.4615 19.1999C31.5215 19.1201 31.5397 19.0253 31.5174 18.9171C31.4941 18.8056 31.4345 18.7138 31.3424 18.638C31.2492 18.5619 31.1467 18.5242 31.0372 18.5242ZM34.1002 19.2844C33.9076 20.015 33.4904 20.4104 32.8497 20.4742L32.8571 20.6835H33.6052L33.5904 23.1585C33.5915 23.5817 33.6046 23.8634 33.635 24.0068C33.7087 24.3501 33.9359 24.5246 34.316 24.5246C34.8661 24.5246 35.4433 24.194 36.0466 23.5331L35.8644 23.3789C35.4286 23.8141 35.0433 24.0325 34.7069 24.0325C34.5001 24.0325 34.3719 23.9152 34.3235 23.6837C34.3102 23.6275 34.3049 23.5617 34.3049 23.4854L34.3124 20.6835H35.4549L35.4438 20.3493H34.316V19.2844H34.1002ZM38.5179 20.2171C37.8789 20.2171 37.3589 20.5232 36.9549 21.1315C36.5527 21.7408 36.4282 22.4158 36.5864 23.1585C36.6794 23.5936 36.8647 23.9308 37.1484 24.1684C37.4315 24.406 37.7907 24.5246 38.2201 24.5246C38.6201 24.5246 39.1769 24.4247 39.4111 24.2235C39.6461 24.0224 39.8626 23.6966 40.0625 23.2504L39.9024 23.0851C39.5836 23.664 38.9399 23.9554 38.4547 23.9554C37.7874 23.9554 37.3788 23.5942 37.2266 22.8758C37.2067 22.7841 37.1919 22.6856 37.1818 22.582C37.9756 22.458 38.5771 22.2384 38.9833 21.921C39.3888 21.6034 39.7962 21.2668 39.7201 20.9111C39.6747 20.6998 39.5636 20.5337 39.3926 20.4081C39.2193 20.2825 38.7693 20.2171 38.5179 20.2171ZM31.5322 20.2428L30.1552 20.5549V20.7973L30.6314 20.7385C30.8622 20.7385 30.998 20.8416 31.0409 21.047C31.0554 21.1158 31.0644 21.2123 31.067 21.3335L31.052 23.5552C31.0483 23.8626 31.0136 24.0413 30.9442 24.095C30.8741 24.1487 30.6892 24.1758 30.3896 24.1758L30.3821 24.3851H32.5668L32.5631 24.1758C32.2595 24.1758 32.0628 24.1521 31.9751 24.106C31.8888 24.0601 31.8296 23.9767 31.8039 23.8489C31.784 23.7568 31.7754 23.5982 31.7741 23.3789L31.7816 20.2428H31.5322ZM38.1682 20.6541C38.3011 20.6541 38.4296 20.7048 38.5589 20.8047C38.6864 20.9042 38.7642 21.0149 38.7896 21.1351C38.9142 21.7258 38.3834 22.1342 37.1892 22.3617C37.1551 21.931 37.2309 21.54 37.4238 21.1866C37.6153 20.8335 37.8646 20.6541 38.1682 20.6541Z" fill="#003B57"/>
</g>
</g>
<defs>
<linearGradient id="paint0_linear_1300_100" x1="36.9035" y1="1.30973" x2="36.9035" y2="60.4407" gradientUnits="userSpaceOnUse">
<stop stop-color="#97D9F6"/>
<stop offset="0.920245" stop-color="#0F80CC"/>
<stop offset="1" stop-color="#0F80CC"/>
</linearGradient>
<clipPath id="clip0_1300_100">
<rect width="64" height="64" rx="32" fill="white"/>
</clipPath>
</defs>
</svg>
