<svg width="64" height="64" viewBox="0 0 64 64" fill="none" xmlns="http://www.w3.org/2000/svg">
<g clip-path="url(#clip0_1300_57)">
<path d="M49 0H15C6.71573 0 0 6.71573 0 15V49C0 57.2843 6.71573 64 15 64H49C57.2843 64 64 57.2843 64 49V15C64 6.71573 57.2843 0 49 0Z" fill="#242938"/>
<path d="M44 18H52L32 52L12 18H19.9H27.3L32 25.8841L36.6 18H44Z" fill="#41B883"/>
<path d="M12 18L32 52L52 18H44L32 38.4L19.9 18H12Z" fill="#41B883"/>
<path d="M20 18L32.0498 39L44 18H36.6307L32.0498 26.0769L27.3693 18H20Z" fill="white"/>
</g>
<defs>
<clipPath id="clip0_1300_57">
<rect width="64" height="64" rx="32" fill="white"/>
</clipPath>
</defs>
</svg>
