<svg width="32" height="32" viewBox="0 0 32 32" fill="none" xmlns="http://www.w3.org/2000/svg">
<rect width="32" height="32" rx="16" fill="#242938"/>
<mask id="mask0_686_686" style="mask-type:luminance" maskUnits="userSpaceOnUse" x="8" y="5" width="16" height="22">
<path d="M8.5 5H23.1696V27H8.5V5Z" fill="white"/>
</mask>
<g mask="url(#mask0_686_686)">
<path d="M12.1682 27.0001C14.1922 27.0001 15.8348 25.3575 15.8348 23.3335V19.6667H12.1682C10.1442 19.6667 8.50146 21.3095 8.50146 23.3335C8.50146 25.3575 10.1442 27.0001 12.1682 27.0001Z" fill="#0ACF83"/>
<path d="M8.50146 15.9999C8.50146 13.9759 10.1442 12.3333 12.1682 12.3333H15.8348V19.6665H12.1682C10.1442 19.6665 8.50146 18.0239 8.50146 15.9999Z" fill="#A259FF"/>
<path d="M8.50146 8.66663C8.50146 6.64263 10.1442 5 12.1682 5H15.8348V12.3334H12.1682C10.1442 12.3334 8.50146 10.6906 8.50146 8.66663Z" fill="#F24E1E"/>
<path d="M15.8347 5H19.5013C21.5253 5 23.1681 6.64263 23.1681 8.66663C23.1681 10.6906 21.5253 12.3334 19.5013 12.3334H15.8347V5Z" fill="#FF7262"/>
<path d="M23.1681 15.9999C23.1681 18.0239 21.5253 19.6665 19.5013 19.6665C17.4773 19.6665 15.8347 18.0239 15.8347 15.9999C15.8347 13.9759 17.4773 12.3333 19.5013 12.3333C21.5253 12.3333 23.1681 13.9759 23.1681 15.9999Z" fill="#1ABCFE"/>
</g>
</svg>
