<svg width="33" height="32" viewBox="0 0 33 32" fill="none" xmlns="http://www.w3.org/2000/svg">
<rect x="0.199951" width="32" height="32" rx="16" fill="#242938"/>
<path d="M15.7532 6C10.0912 6 5.5 10.5903 5.5 16.2532C5.5 20.7833 8.43782 24.6266 12.5118 25.9824C13.0241 26.0773 13.2123 25.76 13.2123 25.4892C13.2123 25.2446 13.2027 24.437 13.1983 23.5803C10.3459 24.2005 9.74406 22.3705 9.74406 22.3705C9.27755 21.1853 8.60556 20.8703 8.60556 20.8703C7.6753 20.2339 8.67569 20.247 8.67569 20.247C9.7053 20.3193 10.2475 21.3036 10.2475 21.3036C11.162 22.871 12.6461 22.4179 13.2311 22.1559C13.3232 21.4931 13.5889 21.0409 13.8821 20.7849C11.6047 20.5256 9.2108 19.6464 9.2108 15.7177C9.2108 14.5982 9.61128 13.6836 10.2672 12.9655C10.1606 12.7073 9.80968 11.6644 10.3664 10.2522C10.3664 10.2522 11.2275 9.97656 13.1868 11.3031C14.0047 11.076 14.8818 10.9621 15.7532 10.9582C16.6245 10.9621 17.5024 11.076 18.3217 11.3032C20.2787 9.97656 21.1385 10.2523 21.1385 10.2523C21.6966 11.6644 21.3455 12.7074 21.239 12.9655C21.8964 13.6836 22.2943 14.5982 22.2943 15.7177C22.2943 19.6558 19.8956 20.5229 17.6125 20.7767C17.9803 21.0949 18.308 21.7188 18.308 22.6754C18.308 24.0473 18.2961 25.1514 18.2961 25.4892C18.2961 25.762 18.4806 26.0817 19.0003 25.981C23.0721 24.6237 26.0062 20.7818 26.0062 16.2532C26.0062 10.5904 21.4156 6 15.7532 6ZM9.34019 20.6058C9.31764 20.6568 9.23746 20.6721 9.16445 20.6371C9.09002 20.6037 9.04829 20.5342 9.07238 20.4831C9.09443 20.4306 9.17481 20.4161 9.24894 20.4512C9.32348 20.4846 9.36593 20.5548 9.34019 20.6058ZM9.84454 21.0558C9.79563 21.1013 9.69997 21.0801 9.63517 21.0085C9.56812 20.937 9.55551 20.8415 9.60513 20.7954C9.65548 20.7501 9.74826 20.7713 9.81542 20.8428C9.88248 20.9152 9.8956 21.01 9.84454 21.0558ZM10.1905 21.6317C10.1276 21.6753 10.0249 21.6344 9.96143 21.5432C9.89858 21.452 9.89858 21.3427 9.96276 21.2988C10.0264 21.2551 10.1276 21.2944 10.192 21.385C10.2547 21.4777 10.2547 21.5871 10.1905 21.6317ZM10.7756 22.2985C10.7194 22.3604 10.5998 22.3438 10.5121 22.2592C10.4225 22.1766 10.3975 22.0593 10.4539 21.9973C10.5108 21.9351 10.6312 21.9527 10.7194 22.0366C10.8084 22.119 10.8356 22.2372 10.7756 22.2985ZM11.5319 22.5236C11.5071 22.604 11.3918 22.6405 11.2757 22.6063C11.1598 22.5711 11.0838 22.4771 11.1073 22.3959C11.1314 22.3151 11.2472 22.2771 11.3642 22.3136C11.48 22.3486 11.556 22.442 11.5319 22.5236ZM12.3925 22.6191C12.3954 22.7036 12.297 22.7737 12.1751 22.7753C12.0524 22.7781 11.9533 22.7096 11.952 22.6264C11.952 22.541 12.0482 22.4716 12.1708 22.4695C12.2928 22.4672 12.3925 22.5351 12.3925 22.6191ZM13.238 22.5867C13.2527 22.6692 13.168 22.754 13.0469 22.7765C12.9279 22.7983 12.8176 22.7473 12.8026 22.6655C12.7878 22.5809 12.874 22.4962 12.9929 22.4743C13.1141 22.4532 13.2226 22.5029 13.238 22.5867Z" fill="white"/>
</svg>
