<svg width="33" height="32" viewBox="0 0 33 32" fill="none" xmlns="http://www.w3.org/2000/svg">
<rect x="0.600098" width="32" height="32" rx="16" fill="#242938"/>
<path fill-rule="evenodd" clip-rule="evenodd" d="M23.3571 19.3053C23.4416 19.2567 23.5118 19.1868 23.5608 19.1026C23.6098 19.0183 23.6357 18.9227 23.636 18.8253L23.6461 15.6101C23.6463 15.5127 23.6723 15.417 23.7213 15.3328C23.7702 15.2485 23.8404 15.1786 23.9249 15.1301L25.6678 14.129C25.7954 14.0558 25.9468 14.0362 26.0889 14.0744C26.231 14.1127 26.3521 14.2058 26.4257 14.3332C26.4743 14.4176 26.5 14.5133 26.5 14.6107V20.4558C26.5 20.5535 26.4742 20.6496 26.4252 20.7341C26.3763 20.8187 26.3058 20.8889 26.2211 20.9375L19.6437 24.7154C19.5597 24.7636 19.4645 24.789 19.3677 24.7891C19.2708 24.7892 19.1756 24.764 19.0915 24.716L13.9296 21.7637C13.8446 21.7151 13.774 21.6449 13.7248 21.5602C13.6757 21.4755 13.6497 21.3793 13.6496 21.2814V18.3341C13.6496 18.3308 13.6536 18.3286 13.6569 18.3302C13.6575 18.3306 13.6583 18.3309 13.6591 18.3309C13.6599 18.3309 13.6607 18.3307 13.6614 18.3303C13.6621 18.3299 13.6626 18.3293 13.663 18.3286C13.6634 18.3279 13.6636 18.3272 13.6635 18.3264V18.3231C13.6635 18.3208 13.6647 18.3186 13.6669 18.3175L17.9181 15.8752C17.922 15.873 17.9203 15.8669 17.9159 15.8669C17.9147 15.8669 17.9136 15.8664 17.9127 15.8655C17.9119 15.8647 17.9114 15.8636 17.9114 15.8624L17.9197 12.9728C17.9202 12.8751 17.8948 12.779 17.8462 12.6942C17.7976 12.6094 17.7275 12.539 17.6429 12.49C17.5584 12.441 17.4624 12.4151 17.3647 12.4151C17.267 12.415 17.171 12.4406 17.0864 12.4895L13.9269 14.3101C13.8425 14.3587 13.7469 14.3842 13.6496 14.3842C13.5523 14.3842 13.4567 14.3587 13.3724 14.3101L10.2028 12.485C10.1184 12.4364 10.0226 12.4108 9.92519 12.4108C9.82774 12.4109 9.73202 12.4366 9.64764 12.4853C9.56326 12.5341 9.49319 12.6041 9.44447 12.6885C9.39574 12.7729 9.37008 12.8687 9.37005 12.9661V18.1885C9.37015 18.2859 9.34467 18.3815 9.29615 18.4659C9.24764 18.5503 9.1778 18.6205 9.09362 18.6694C9.00945 18.7183 8.91391 18.7442 8.81657 18.7445C8.71922 18.7449 8.6235 18.7196 8.53899 18.6713L6.78001 17.6658C6.69481 17.6171 6.62401 17.5468 6.57483 17.4619C6.52564 17.377 6.49983 17.2806 6.5 17.1824L6.51557 8.05441C6.51578 7.95709 6.54154 7.86154 6.59029 7.77732C6.63903 7.69309 6.70904 7.62315 6.79332 7.57449C6.87759 7.52583 6.97317 7.50016 7.07048 7.50005C7.16779 7.49994 7.26343 7.52539 7.34781 7.57386L13.3729 11.0345C13.4571 11.0829 13.5525 11.1084 13.6496 11.1084C13.7467 11.1084 13.8421 11.0829 13.9263 11.0345L19.9499 7.57386C20.0775 7.50048 20.2291 7.48082 20.3713 7.51918C20.5134 7.55755 20.6345 7.65081 20.708 7.77845C20.7566 7.86283 20.7821 7.95862 20.7821 8.05611V17.1863C20.7821 17.284 20.7564 17.3799 20.7075 17.4645C20.6586 17.5491 20.5883 17.6193 20.5037 17.668L17.3491 19.4847C17.2645 19.5336 17.1942 19.604 17.1453 19.6887C17.0965 19.7734 17.0709 19.8696 17.0711 19.9674C17.0712 20.0652 17.0973 20.1612 17.1465 20.2457C17.1957 20.3302 17.2664 20.4002 17.3514 20.4487L19.0915 21.4392C19.1756 21.4871 19.2707 21.5122 19.3675 21.5121C19.4642 21.5119 19.5593 21.4864 19.6432 21.4381L23.3571 19.3053ZM23.7221 11.1151C23.7223 11.2133 23.7484 11.3098 23.7979 11.3946C23.8475 11.4794 23.9186 11.5496 24.004 11.5981C24.0895 11.6465 24.1864 11.6714 24.2846 11.6701C24.3829 11.6689 24.479 11.6417 24.5633 11.5911L26.23 10.5911C26.3123 10.5418 26.3803 10.472 26.4276 10.3886C26.475 10.3052 26.4999 10.2109 26.5 10.115V8.07713C26.4998 8.00368 26.485 7.93101 26.4566 7.86329C26.4282 7.79558 26.3866 7.73417 26.3343 7.68261C26.282 7.63105 26.22 7.59036 26.1519 7.56289C26.0837 7.53541 26.0109 7.52171 25.9374 7.52255C25.8392 7.52382 25.7431 7.55109 25.6588 7.60159L23.9921 8.60162C23.9098 8.6509 23.8417 8.72067 23.7943 8.80412C23.747 8.88757 23.7221 8.98186 23.7221 9.07779V11.1156V11.1151Z" fill="#007FFF"/>
</svg>
