<svg width="32" height="32" viewBox="0 0 32 32" fill="none" xmlns="http://www.w3.org/2000/svg">
<path d="M29.2901 7.09757L28.8113 7.24934L26.2614 7.47648L25.5411 8.62647L25.0185 8.46044L22.9891 6.63105L22.6947 5.67969L22.3005 4.66518L21.025 3.5213L19.5203 3.22693L19.4856 3.9155L20.9598 5.35374L21.6811 6.20325L20.8701 6.62698L20.21 6.43243L19.2208 6.0199L19.2544 5.22234L17.9565 4.6886L17.5256 6.56383L16.2175 6.86024L16.3469 7.90633L18.0512 8.23431L18.3457 6.56281L19.7526 6.7706L20.4066 7.15359H21.4559L22.1741 8.59184L24.0782 10.5231L23.9386 11.2738L22.4034 11.0782L19.7505 12.4177L17.8404 14.7085L17.5918 15.723H16.9062L15.6287 15.1342L14.3878 15.723L14.6965 17.0319L15.2364 16.4095L16.1859 16.38L16.1197 17.5554L16.9062 17.7856L17.6916 18.6677L18.9742 18.3071L20.4392 18.5384L22.1405 18.9957L22.9902 19.0955L24.4307 20.7304L27.2108 22.3652L25.4127 25.7999L23.5148 26.682L22.7946 28.6448L20.048 30.4783L19.7556 31.5356C26.7769 29.8447 32 23.5386 32 15.999C31.998 12.7059 30.9996 9.64099 29.2901 7.09757Z" fill="#0494FC"/>
<path d="M17.8394 24.3616L16.6739 22.2012L17.7436 19.9725L16.6739 19.6526L15.4728 18.4466L12.8118 17.8497L11.9286 16.002V17.099H11.5394L9.24619 13.9903V11.4367L7.56525 8.70383L4.89612 9.17951H3.09802L2.19337 8.58669L3.34762 7.672L2.19643 7.93785C0.808889 10.3071 0 13.0563 0 16.001C0 24.8352 7.16284 32 15.9995 32C16.68 32 17.3473 31.9399 18.0074 31.8604L17.8404 29.9221C17.8404 29.9221 18.5749 27.0435 18.5749 26.9457C18.5739 26.8469 17.8394 24.3616 17.8394 24.3616Z" fill="#0494FC"/>
<path d="M5.94538 5.15915L8.7877 4.76292L10.0978 4.04482L11.5719 4.46957L13.9273 4.33919L14.7341 3.07105L15.9108 3.26458L18.7684 2.99669L19.5559 2.12885L20.6663 1.38732L22.2372 1.62363L22.8098 1.53705C20.7407 0.56328 18.4383 0 15.9984 0C11.032 0 6.59127 2.26331 3.6593 5.81716H3.66745L5.94538 5.15915ZM16.6749 1.59104L18.3089 0.691622L19.3583 1.29768L17.8393 2.45378L16.3886 2.59944L15.7356 2.17571L16.6749 1.59104ZM11.8348 1.72243L12.5561 2.02292L13.5004 1.72243L14.0149 2.6137L11.8348 3.18615L10.7865 2.57296C10.7865 2.57296 11.8113 1.91291 11.8348 1.72243Z" fill="#0494FC"/>
</svg>
