<svg width="33" height="32" viewBox="0 0 33 32" fill="none" xmlns="http://www.w3.org/2000/svg">
<rect x="0.199951" width="32" height="32" rx="16" fill="#0277BD"/>
<path d="M7.63611 13.1484L7.95255 16.6802H15.8562V13.1484H7.63611ZM15.856 6H7L7.32109 9.53181H15.856V6ZM15.856 25.9955V22.3209L15.8406 22.325L11.9072 21.263L11.6557 18.4461H8.11034L8.60513 23.9916L15.8398 26L15.856 25.9955Z" fill="#EBEBEB"/>
<path d="M20.193 16.6802L19.783 21.2607L15.844 22.3239V25.9982L23.0844 23.9916L23.1375 23.3949L23.9674 14.0969L24.0535 13.1484L24.6912 6H15.844V9.53181H20.8206L20.4993 13.1484H15.844V16.6802H20.193Z" fill="white"/>
</svg>
