<svg width="32" height="32" viewBox="0 0 32 32" fill="none" xmlns="http://www.w3.org/2000/svg">
<rect width="32" height="32" rx="16" fill="url(#paint0_linear_686_677)"/>
<path d="M6.74104 15.9565L10.7728 17.5902V18.7338L6 16.5225V15.8515L6.74104 15.9565ZM10.7728 14.6146L6.74689 16.2715L6.00008 16.3533V15.6764L10.7727 13.4709L10.7728 14.6146ZM25.1657 16.1899L21.0172 14.5737V13.4592L26 15.6647V16.3474L25.1657 16.1899ZM21.0172 17.6135L25.1774 15.9623L26 15.8398V16.5166L21.0172 18.728V17.6135Z" fill="white"/>
<path fill-rule="evenodd" clip-rule="evenodd" d="M19.9325 10.5079C19.9094 10.8739 19.7446 11.256 19.7905 11.6118C20.0784 12.1211 20.7123 12.2022 21.2351 12.2372C21.5974 12.3019 21.5928 12.0621 21.5686 11.7926L21.573 10.5003C21.0261 10.5023 20.4791 10.4949 19.9325 10.5079ZM15.6205 11.5314C14.7302 11.6826 13.8277 12.108 13.0871 12.6201C12.491 13.0841 13.5988 13.5337 14.0008 13.6089C14.8095 13.6188 15.5267 13.0733 16.0579 12.5071C16.2314 12.2691 16.448 11.9047 16.2301 11.6287C16.0637 11.4844 15.8217 11.5194 15.6205 11.5314ZM17.5149 12.8262C16.7829 12.9656 16.0865 13.2673 15.4702 13.6874C15.0184 13.8292 14.6461 14.3253 15.2059 14.5738C15.7938 15.0423 16.4751 14.9275 17.0165 14.6112C17.5123 14.3165 18.0478 13.9529 18.2772 13.3981C18.4939 12.7904 17.9349 12.7678 17.5149 12.8262ZM19.5915 15.1812C19.4551 15.7505 18.8818 16.0094 18.5767 16.4606C18.3273 16.7896 18.4428 17.1773 18.7268 17.4364C18.865 17.723 19.1074 17.8833 19.3673 17.6342C20.0367 17.1792 20.2218 16.2927 20.194 15.5247C20.2435 15.2075 19.8795 15.4942 19.5915 15.1812ZM17.0441 16.2506C16.1552 16.4027 15.2662 16.8358 14.5252 17.3471C13.95 17.8105 15.0333 18.2431 15.4386 18.3117C16.2622 18.3129 16.9969 17.7821 17.5177 17.1792C17.6989 16.9398 17.9184 16.4749 17.5597 16.2846C17.3994 16.2166 17.2132 16.2365 17.0441 16.2506Z" fill="#B956A6"/>
<path fill-rule="evenodd" clip-rule="evenodd" d="M13.0872 12.6202C12.4035 12.8937 11.7441 13.2259 11.0928 13.5737C10.9718 14.0237 11.0688 14.581 11.0375 15.0745C11.0351 17.1035 11.0362 19.1326 11.0359 21.1616H12.5443C12.8488 20.8748 13.2303 20.6649 13.5612 20.4045C14.835 19.4909 16.1085 18.5738 17.3807 17.6627C17.4743 17.7048 17.4143 17.1121 17.209 17.5238C16.7224 17.9817 16.0766 18.3583 15.393 18.3215C15.0051 18.1939 14.3798 17.9774 14.3759 17.5021C14.6489 17.1806 13.8721 17.6704 13.6595 17.7405C12.9685 18.0723 12.2938 18.4428 11.6013 18.7685C11.7677 18.5897 12.079 18.4231 12.2997 18.2458C13.8765 17.114 15.4528 15.9777 17.0333 14.8468C17.3373 14.6333 17.631 14.4005 17.9444 14.201C17.973 14.3115 18.0267 13.6726 17.7936 14.066C17.3185 14.5369 16.6776 14.8875 16.0017 14.8923C15.6216 14.7769 14.812 14.5009 14.9922 14.0101C15.0801 13.8379 14.1757 14.3773 14.5753 14.0731C15.0006 13.7623 15.4293 13.457 15.858 13.1494C16.0744 13.1331 16.0284 12.329 15.7342 12.8477C15.2401 13.2819 14.5909 13.6791 13.9104 13.5849C13.5281 13.4749 13.0694 13.2618 12.9304 12.862C12.8844 12.766 13.1878 12.6163 13.0872 12.6202ZM15.9195 13.1165C15.8816 13.225 15.9882 13.077 15.9195 13.1165V13.1165Z" fill="#FCCC44"/>
<path fill-rule="evenodd" clip-rule="evenodd" d="M20.2389 12.0828C20.0255 13.1019 19.7922 14.1686 19.5916 15.181C20.168 15.9075 20.2238 14.7221 20.3247 14.3869C20.4876 13.6864 20.6806 13.1574 20.701 12.4321C20.7443 12.1845 20.4534 12.0346 20.2389 12.0828ZM20.9002 12.882C20.8822 12.9864 20.9265 12.9016 20.9002 12.882V12.882ZM20.2278 15.1673C20.2555 15.1075 20.2555 15.227 20.2278 15.1673V15.1673Z" fill="#62777F"/>
<path fill-rule="evenodd" clip-rule="evenodd" d="M20.6168 12.1983C20.7967 13.2083 20.2009 14.4354 20.0061 15.3877C20.4485 15.0622 20.7903 13.585 20.8777 13.0069C20.9002 12.9407 20.928 12.7743 20.934 12.7683C20.9618 12.628 21.2209 12.3902 21.2351 12.2372C21.3859 12.1308 20.4937 12.1137 20.6168 12.1983ZM20.25 15.1675C20.2222 15.1077 20.2222 15.2272 20.25 15.1675V15.1675Z" fill="#4E5E67"/>
<path fill-rule="evenodd" clip-rule="evenodd" d="M13.102 12.6368C12.8526 12.8866 12.9462 12.8256 13.1318 12.6179L13.102 12.6368ZM15.7998 12.7605C15.5108 13.1947 14.4689 13.5577 14.3377 13.5859C14.9645 13.4684 15.5487 13.0785 15.9597 12.6218C15.8944 12.6509 15.8556 12.7193 15.7998 12.7605ZM12.9306 12.9015C13.0864 13.2759 13.6526 13.5247 13.9278 13.5827C13.5521 13.4617 13.1099 13.2471 12.9306 12.9015ZM15.8969 13.118C15.8183 13.2109 15.5382 13.3497 15.3906 13.4859C15.0739 13.7195 14.7464 13.9365 14.4333 14.1759C14.6326 14.1673 15.2168 13.731 14.9173 14.1737C15.1711 14.6105 15.7235 14.9141 16.2273 14.8864C16.8925 14.782 17.5059 14.4142 17.9469 13.9027C17.4116 14.4324 16.7039 14.9309 15.9208 14.8622C15.5418 14.7747 14.5061 14.2397 15.1989 13.8647C15.4432 13.6638 15.8644 13.5585 15.912 13.2054C15.902 13.1613 15.9842 13.1183 15.8969 13.118ZM14.0007 13.6088C14.2527 13.5759 14.2527 13.6417 14.0007 13.6088V13.6088ZM17.9282 14.2119C16.928 14.9087 15.9423 15.6327 14.9508 16.3421C13.8272 17.1463 12.7083 17.9534 11.585 18.757C12.0073 18.6146 12.4305 18.3364 12.8501 18.1443C13.428 17.8386 14.0372 17.5972 14.5779 17.2258C15.6469 16.5965 16.7775 15.9969 17.5997 15.0341C17.7792 14.8237 17.9591 14.4849 17.9671 14.257C17.9412 14.2643 17.9609 14.1659 17.9282 14.2119ZM14.5251 17.347C14.3452 17.5504 14.2721 17.6957 14.4588 17.4371C14.4555 17.4671 14.6104 17.2766 14.5251 17.347ZM17.2626 17.4443C16.7886 17.9441 16.0876 18.3046 15.4298 18.3289C16.1902 18.3344 16.8763 17.883 17.3915 17.3505C17.3577 17.3097 17.2891 17.4458 17.2626 17.4443ZM17.4074 17.6014C15.815 18.7607 14.1676 19.9631 12.5697 21.1182C12.8214 21.1971 13.3695 21.2342 13.6197 20.9119C14.1518 20.5447 14.7501 20.2746 15.2841 19.9024C16.0573 19.4007 16.8851 18.8524 17.3242 18.0091C17.3452 17.896 17.5006 17.6926 17.4074 17.6014ZM14.3768 17.675C14.4507 17.9869 15.3745 18.3449 15.2743 18.2764C14.9337 18.157 14.5958 17.9709 14.3768 17.675Z" fill="#DC9624"/>
<defs>
<linearGradient id="paint0_linear_686_677" x1="0" y1="32" x2="32" y2="0" gradientUnits="userSpaceOnUse">
<stop stop-color="#DB7093"/>
<stop offset="1" stop-color="#F3B661"/>
</linearGradient>
</defs>
</svg>
