<svg width="33" height="32" viewBox="0 0 33 32" fill="none" xmlns="http://www.w3.org/2000/svg">
<rect x="0.199951" width="32" height="32" rx="16" fill="#242938"/>
<path fill-rule="evenodd" clip-rule="evenodd" d="M11 14C11.6667 11.3333 13.3334 10 16 10C20 10 20.5 13 22.5 13.5C23.8334 13.8334 25 13.3334 26 12C25.3334 14.6666 23.6666 16 21 16C17 16 16.5 13 14.5 12.5C13.1666 12.1667 12 12.6667 11 14ZM6 20C6.66667 17.3334 8.33333 16 11 16C15 16 15.5 19 17.5 19.5C18.8334 19.8334 20 19.3334 21 18C20.3334 20.6666 18.6666 22 16 22C12 22 11.5 19 9.5 18.5C8.16667 18.1666 7 18.6666 6 20Z" fill="url(#paint0_linear_686_661)"/>
<defs>
<linearGradient id="paint0_linear_686_661" x1="11.3889" y1="10" x2="19.9444" y2="22.3889" gradientUnits="userSpaceOnUse">
<stop stop-color="#32B1C1"/>
<stop offset="1" stop-color="#14C6B7"/>
</linearGradient>
</defs>
</svg>
