<svg width="32" height="32" viewBox="0 0 32 32" fill="none" xmlns="http://www.w3.org/2000/svg">
<path d="M26.9484 28.1848C26.8722 27.9567 26.6601 27.8009 26.4181 27.8034H26.3972C22.7762 27.8034 19.2664 26.5105 16.5132 24.1626L15.3134 23.0217C12.6317 20.1815 11.1551 16.466 11.1551 12.5575C11.1551 8.10359 13.0959 3.88447 16.4799 0.981914C16.6624 0.825415 16.7241 0.569603 16.6332 0.347041C16.5422 0.124541 16.3192 -0.0146462 16.079 0.00122874C7.70293 0.561415 1.14151 7.58121 1.14151 15.9825C1.14151 24.8146 8.32687 31.9999 17.1589 31.9999C20.6506 31.9999 23.9685 30.8962 26.7538 28.8082C26.9461 28.664 27.0246 28.4128 26.9484 28.1848Z" fill="#0494FC"/>
<path opacity="0.1" d="M18.2288 31.2571C9.39681 31.2571 2.21145 24.0717 2.21145 15.2397C2.21145 10.0484 4.71732 5.38551 8.60781 2.44727C4.11238 5.30226 1.14151 10.3296 1.14151 15.9826C1.14151 24.8146 8.32687 32 17.1589 32C20.6506 32 23.9685 30.8963 26.7538 28.8083C26.7623 28.8018 26.7694 28.7942 26.7775 28.7874C24.2234 30.4068 21.2931 31.2571 18.2288 31.2571Z" fill="#231F20"/>
<path d="M27.059 9.70365C27.0303 9.61502 26.9536 9.55046 26.8615 9.53709L24.6885 9.22134L23.7169 7.2524C23.6756 7.1689 23.5905 7.11597 23.4974 7.11597C23.4042 7.11597 23.3191 7.16884 23.278 7.2524L22.3061 9.22134L20.1333 9.53709C20.0411 9.55046 19.9645 9.61502 19.9356 9.70365C19.9069 9.79221 19.9309 9.8894 19.9975 9.95452L21.57 11.4871L21.1989 13.6512C21.1831 13.743 21.2208 13.8358 21.2963 13.8905C21.3715 13.9453 21.4714 13.9525 21.5538 13.9091L23.4974 12.8874L25.4408 13.9091C25.4767 13.928 25.5158 13.9372 25.5548 13.9372C25.6055 13.9372 25.6559 13.9215 25.6987 13.8905C25.7741 13.8358 25.8118 13.743 25.796 13.6512L25.4249 11.4871L26.9971 9.95452C27.0639 9.8894 27.0879 9.79221 27.059 9.70365Z" fill="#0494FC"/>
<g opacity="0.1">
<path d="M22.2806 13.2791L22.6517 11.115L21.0792 9.58246C21.032 9.5364 21.0068 9.47415 21.0059 9.4104L20.1334 9.53721C20.0413 9.55059 19.9646 9.61515 19.9358 9.70377C19.907 9.79234 19.931 9.88952 19.9976 9.95465L21.5701 11.4872L21.1991 13.6513C21.1833 13.7431 21.2209 13.8359 21.2964 13.8906C21.3716 13.9454 21.4715 13.9526 21.5539 13.9092L22.3476 13.492C22.2928 13.4365 22.2672 13.3576 22.2806 13.2791Z" fill="#231F20"/>
</g>
<path d="M22.4815 22.0585C23.3662 22.0585 24.0834 21.3412 24.0834 20.4565C24.0834 19.5717 23.3662 18.8545 22.4815 18.8545C21.5967 18.8545 20.8795 19.5717 20.8795 20.4565C20.8795 21.3412 21.5967 22.0585 22.4815 22.0585Z" fill="#0494FC"/>
<path opacity="0.1" d="M21.8955 20.4563C21.8955 19.7492 22.3537 19.1496 22.9894 18.9371C22.8296 18.8837 22.6589 18.8544 22.4813 18.8544C21.5965 18.8544 20.8792 19.5716 20.8792 20.4564C20.8792 21.3411 21.5965 22.0584 22.4813 22.0584C22.6589 22.0584 22.8297 22.029 22.9894 21.9756C22.3538 21.763 21.8955 21.1634 21.8955 20.4563Z" fill="#231F20"/>
<path d="M30.8585 17.1014C30.8585 17.7192 30.3577 18.2201 29.7397 18.2201C29.1219 18.2201 28.6211 17.7192 28.6211 17.1014C28.6211 16.4834 29.122 15.9827 29.7397 15.9827C30.3577 15.9827 30.8585 16.4835 30.8585 17.1014Z" fill="#0494FC"/>
<path opacity="0.1" d="M29.7397 17.1014C29.7397 16.6874 29.965 16.3269 30.2991 16.1334C30.1344 16.038 29.9437 15.9825 29.7396 15.9825C29.1218 15.9825 28.621 16.4833 28.621 17.1012C28.621 17.7191 29.1219 18.22 29.7396 18.22C29.9437 18.22 30.1344 18.1645 30.2991 18.0691C29.965 17.8758 29.7397 17.5153 29.7397 17.1014Z" fill="#231F20"/>
</svg>
