<svg width="55" height="54" viewBox="0 0 55 54" fill="none" xmlns="http://www.w3.org/2000/svg">
<rect x="1.5" y="1" width="52" height="52" rx="26" fill="#0494FC"/>
<rect x="1.5" y="1" width="52" height="52" rx="26" stroke="#0494FC" stroke-width="2"/>
<path fill-rule="evenodd" clip-rule="evenodd" d="M27.5641 41.5988C24.9897 41.5988 22.5711 40.9409 20.467 39.7861L12.3384 42.3691L14.9882 34.5526C13.6517 32.357 12.8817 29.7823 12.8817 27.0301C12.8817 18.984 19.4551 12.4614 27.5644 12.4614C35.6727 12.4614 42.2461 18.984 42.2461 27.0301C42.2461 35.0763 35.673 41.5988 27.5641 41.5988ZM27.5641 14.7816C20.7571 14.7816 15.2202 20.2763 15.2202 27.0301C15.2202 29.7102 16.0938 32.1922 17.5712 34.2116L16.0293 38.7603L20.7727 37.2526C22.722 38.5323 25.0568 39.2787 27.5641 39.2787C34.37 39.2787 39.908 33.7843 39.908 27.0305C39.908 20.2766 34.37 14.7816 27.5641 14.7816ZM34.9778 30.3854C34.8874 30.2369 34.6475 30.1472 34.2883 29.9687C33.9281 29.7903 32.1582 28.9259 31.8289 28.8073C31.4986 28.6883 31.2583 28.6282 31.0187 28.9858C30.7791 29.3433 30.0893 30.1472 29.8789 30.3854C29.6689 30.624 29.4592 30.6539 29.0993 30.4752C28.7398 30.2967 27.58 29.9195 26.2049 28.703C25.1352 27.7566 24.4128 26.5882 24.2031 26.2303C23.9931 25.873 24.1808 25.68 24.3609 25.5022C24.5228 25.342 24.7208 25.0851 24.9009 24.8768C25.081 24.6681 25.1409 24.5195 25.2605 24.2809C25.3808 24.0427 25.3206 23.8343 25.2306 23.6552C25.1405 23.4768 24.4204 21.7195 24.1207 21.0044C23.8209 20.2899 23.5215 20.4089 23.3112 20.4089C23.1012 20.4089 22.8612 20.379 22.6213 20.379C22.3814 20.379 21.9913 20.4684 21.6613 20.8256C21.3316 21.1832 20.4022 22.0472 20.4022 23.8041C20.4022 25.5613 21.6912 27.2591 21.8716 27.497C22.0514 27.735 24.3606 31.4581 28.019 32.888C31.6787 34.3176 31.6787 33.8408 32.3386 33.7813C32.9976 33.7218 34.4671 32.9176 34.7678 32.0839C35.0672 31.2494 35.0672 30.5343 34.9778 30.3854Z" fill="white"/>
</svg>
