<svg width="64" height="64" viewBox="0 0 64 64" fill="none" xmlns="http://www.w3.org/2000/svg">
<g clip-path="url(#clip0_1300_175)">
<mask id="mask0_1300_175" style="mask-type:luminance" maskUnits="userSpaceOnUse" x="0" y="0" width="64" height="64">
<path d="M64 0H0V64H64V0Z" fill="white"/>
</mask>
<g mask="url(#mask0_1300_175)">
<path d="M49 0H15C6.71572 0 0 6.71572 0 15V49C0 57.2843 6.71572 64 15 64H49C57.2843 64 64 57.2843 64 49V15C64 6.71572 57.2843 0 49 0Z" fill="#242938"/>
</g>
<path d="M16 41L18.9091 20.6364L30.5455 9L45.0909 23.5455L36.3636 32.2727L48 43.9091L30.5455 55.5455L16 41Z" fill="#00D1B2"/>
</g>
<defs>
<clipPath id="clip0_1300_175">
<rect width="64" height="64" rx="32" fill="white"/>
</clipPath>
</defs>
</svg>
