<svg width="64" height="64" viewBox="0 0 64 64" fill="none" xmlns="http://www.w3.org/2000/svg">
<g clip-path="url(#clip0_1300_119)">
<mask id="mask0_1300_119" style="mask-type:luminance" maskUnits="userSpaceOnUse" x="0" y="0" width="64" height="64">
<path d="M64 0H0V64H64V0Z" fill="white"/>
</mask>
<g mask="url(#mask0_1300_119)">
<path d="M49 0H15C6.71572 0 0 6.71572 0 15V49C0 57.2843 6.71572 64 15 64H49C57.2843 64 64 57.2843 64 49V15C64 6.71572 57.2843 0 49 0Z" fill="#242938"/>
<path d="M25.4647 27.4201C27.2092 27.4201 28.6267 28.3529 29.3535 29.9729L29.408 30.1004L32.3337 29.1039L32.2747 28.9536C31.1435 26.1869 28.5312 24.4712 25.4647 24.4712C23.3067 24.4712 21.5531 25.1629 20.1038 26.5871C18.6637 28.0026 17.9368 29.7819 17.9368 31.8751C17.9368 33.9549 18.6682 35.7249 20.1038 37.1356C21.5531 38.5601 23.3067 39.2516 25.4647 39.2516C28.5312 39.2516 31.139 37.5316 32.2747 34.7694L32.3337 34.6191L29.4035 33.6226L29.3535 33.7546C28.6992 35.3519 27.2455 36.3029 25.4647 36.3029C24.2517 36.3029 23.2249 35.8796 22.4162 35.0424C21.5939 34.1959 21.1805 33.1266 21.1805 31.8751C21.1805 30.6146 21.5849 29.5679 22.4162 28.6806C23.2295 27.8431 24.2517 27.4201 25.4647 27.4201Z" fill="#1B1E2E"/>
<path d="M38.1672 52.5215L37.2949 49.641C45.1634 47.2472 50.4517 40.1072 50.4517 31.8752C50.4517 29.6045 50.0474 27.3837 49.2477 25.2812L52.0554 24.2119C52.9867 26.6602 53.4592 29.2357 53.4592 31.8797C53.4547 41.4407 47.3124 49.7365 38.1672 52.5215Z" fill="url(#paint0_linear_1300_119)"/>
<path d="M49.6386 26.4323C47.2353 18.5778 40.0981 13.3036 31.8751 13.3036C30.7573 13.3036 29.6398 13.4037 28.5496 13.5993L28.0181 10.6369C29.2808 10.4093 30.5803 10.291 31.8751 10.291C41.4246 10.291 49.7158 16.4208 52.5098 25.5448L49.6386 26.4323Z" fill="#69D3A7"/>
<path d="M11.6765 39.4836C10.7588 37.0536 10.2954 34.4916 10.2954 31.8749C10.2954 20.7258 18.6502 11.4925 29.7309 10.4004L30.0261 13.3947C20.4901 14.3367 13.2984 22.2821 13.2984 31.8749C13.2984 34.1276 13.6982 36.3346 14.4841 38.4234L11.6765 39.4836Z" fill="url(#paint1_linear_1300_119)"/>
<path d="M43.787 24.7441L39.621 35.3197L35.4233 24.7441H31.9885L37.8765 39.1787L33.5878 49.5997L36.5908 50.2005L47.0308 24.7441H43.787Z" fill="#1B1E2E"/>
<path d="M34.1283 48.2893L33.4968 49.8228C33.3516 50.1733 33.0198 50.4143 32.6473 50.428C32.3883 50.437 32.1341 50.4463 31.8706 50.4463C23.6248 50.4463 16.2831 44.9173 14.0161 36.999L11.1267 37.8273C13.7617 47.024 22.2891 53.4498 31.8661 53.4543H31.8706C32.1703 53.4543 32.4701 53.4498 32.7701 53.436C34.3101 53.3723 35.6866 52.403 36.2773 50.9695L37.1313 48.89L34.1283 48.2893Z" fill="url(#paint2_linear_1300_119)"/>
</g>
</g>
<defs>
<linearGradient id="paint0_linear_1300_119" x1="55.1124" y1="32.0117" x2="35.8254" y2="44.4787" gradientUnits="userSpaceOnUse">
<stop offset="0.0814251" stop-color="#69D3A7"/>
<stop offset="1" stop-color="#69D3A7" stop-opacity="0"/>
</linearGradient>
<linearGradient id="paint1_linear_1300_119" x1="24.6917" y1="10.564" x2="12.5538" y2="36.2646" gradientUnits="userSpaceOnUse">
<stop stop-color="#69D3A7"/>
<stop offset="0.8232" stop-color="#2AB586"/>
<stop offset="1" stop-color="#1CAE7F"/>
</linearGradient>
<linearGradient id="paint2_linear_1300_119" x1="10.2648" y1="41.7565" x2="42.0153" y2="51.7045" gradientUnits="userSpaceOnUse">
<stop offset="0.0773521" stop-color="#1CAE7F"/>
<stop offset="0.1638" stop-color="#1CA379"/>
<stop offset="0.3161" stop-color="#1C8568"/>
<stop offset="0.5165" stop-color="#1B554D"/>
<stop offset="0.7187" stop-color="#1B1E2E"/>
</linearGradient>
<clipPath id="clip0_1300_119">
<rect width="64" height="64" rx="32" fill="white"/>
</clipPath>
</defs>
</svg>
