<svg width="33" height="32" viewBox="0 0 33 32" fill="none" xmlns="http://www.w3.org/2000/svg">
<rect x="0.399902" width="32" height="32" rx="16" fill="#F03C2E"/>
<mask id="mask0_686_700" style="mask-type:luminance" maskUnits="userSpaceOnUse" x="6" y="6" width="21" height="20">
<path d="M6.5 6H26.5V26H6.5V6Z" fill="white"/>
</mask>
<g mask="url(#mask0_686_700)">
<path d="M26.1224 15.1094L17.3905 6.37747C17.2105 6.19723 16.981 6.07447 16.7312 6.02475C16.4813 5.97503 16.2223 6.00058 15.987 6.09817C15.8308 6.16292 15.6889 6.25783 15.5693 6.37747L13.7568 8.18997L16.0568 10.49C16.5918 10.3025 17.2043 10.4306 17.6305 10.8569C17.8334 11.0601 17.9751 11.3164 18.0393 11.5963C18.1035 11.8762 18.0877 12.1686 17.9936 12.44L20.2105 14.6569C20.7468 14.4719 21.3655 14.5912 21.7936 15.0206C22.0081 15.2349 22.1541 15.5081 22.2132 15.8055C22.2723 16.1029 22.2419 16.4111 22.1257 16.6912C21.97 17.0667 21.6715 17.365 21.296 17.5205C20.9204 17.676 20.4984 17.676 20.1228 17.5205C19.9368 17.4434 19.7678 17.3305 19.6255 17.1881C19.1755 16.7381 19.0643 16.0756 19.2918 15.5212L17.2243 13.4537V18.8944C17.3744 18.9686 17.5116 19.0665 17.6305 19.1844C17.918 19.4718 18.0794 19.8616 18.0794 20.2681C18.0794 20.6746 17.918 21.0644 17.6305 21.3519C17.3431 21.6393 16.9533 21.8008 16.5468 21.8008C16.1403 21.8008 15.7505 21.6393 15.463 21.3519C15.2485 21.1376 15.1024 20.8645 15.0432 20.5672C14.984 20.2698 15.0143 19.9616 15.1304 19.6815C15.2075 19.4955 15.3205 19.3266 15.463 19.1844C15.6111 19.0369 15.7755 18.925 15.9649 18.85V13.3587C15.777 13.2818 15.6063 13.1682 15.463 13.0244C15.2478 12.8094 15.1015 12.5352 15.0428 12.2368C14.984 11.9384 15.0154 11.6292 15.133 11.3487L12.8643 9.08127L6.87683 15.0625C6.69658 15.2426 6.57381 15.4721 6.52406 15.7221C6.4743 15.972 6.4998 16.231 6.59733 16.4665C6.66214 16.6228 6.75711 16.7648 6.87683 16.8844L15.6093 25.6156C15.7289 25.7352 15.8708 25.8301 16.027 25.8949C16.3426 26.0255 16.6972 26.0255 17.0128 25.8949C17.169 25.8301 17.311 25.7352 17.4305 25.6156L26.1224 16.9375C26.2421 16.8179 26.337 16.6759 26.4018 16.5196C26.4666 16.3633 26.5 16.1958 26.5 16.0266C26.5 15.8574 26.4667 15.6898 26.4019 15.5335C26.3371 15.3772 26.2421 15.2352 26.1224 15.1156" fill="white"/>
</g>
</svg>
