<svg width="32" height="32" viewBox="0 0 32 32" fill="none" xmlns="http://www.w3.org/2000/svg">
<rect width="32" height="32" rx="16" fill="#242938"/>
<mask id="mask0_686_650" style="mask-type:luminance" maskUnits="userSpaceOnUse" x="6" y="6" width="20" height="20">
<path d="M6 6H26V26H6V6Z" fill="white"/>
</mask>
<g mask="url(#mask0_686_650)">
<path fill-rule="evenodd" clip-rule="evenodd" d="M24.2 21.8012C23.1122 21.771 22.2684 21.8824 21.5611 22.18C21.3575 22.2618 21.0307 22.2618 21.0038 22.5181C21.1127 22.6257 21.1258 22.8017 21.2212 22.9508C21.3842 23.2213 21.6702 23.5858 21.9285 23.7749L22.7989 24.3969C23.3294 24.721 23.9278 24.9104 24.4446 25.2349C24.7439 25.4242 25.043 25.6675 25.3424 25.8705C25.4948 25.9787 25.5871 26.1548 25.7777 26.222V26.1811C25.6826 26.0599 25.6551 25.8842 25.5604 25.7484L25.1518 25.3567C24.7577 24.8295 24.2677 24.3695 23.7372 23.9914C23.3019 23.694 22.3501 23.2885 22.1732 22.7887L22.1465 22.7583C22.4452 22.7281 22.7989 22.6229 23.0848 22.5418C23.5476 22.4205 23.9689 22.4472 24.4446 22.3257L25.0979 22.1363V22.0151C24.853 21.7719 24.6762 21.4473 24.418 21.2178C23.7245 20.623 22.9622 20.0415 22.1732 19.555C21.7517 19.2848 21.2075 19.1087 20.7587 18.8793C20.595 18.7981 20.3234 18.7575 20.2282 18.6224C19.9828 18.3255 19.8471 17.9331 19.6704 17.5814L18.5551 15.2294C18.3104 14.7022 18.1604 14.175 17.8616 13.6884C16.4604 11.3903 14.9367 9.99821 12.5971 8.63265C12.0941 8.34876 11.4957 8.22665 10.8594 8.07821L9.83935 8.02376C9.62135 7.92921 9.40391 7.67221 9.21346 7.55043C8.43813 7.06376 6.43857 6.00954 5.8668 7.39899C5.49957 8.27754 6.41113 9.14254 6.72057 9.58887C6.95224 9.89976 7.25102 10.2511 7.41469 10.6027C7.50613 10.8323 7.53668 11.0759 7.63213 11.3192C7.84946 11.9139 8.05368 12.5765 8.33935 13.131C8.4918 13.4149 8.65191 13.7127 8.84235 13.9693C8.95124 14.1208 9.1418 14.1857 9.18235 14.4289C8.9918 14.6994 8.97869 15.1045 8.8698 15.443C8.37991 16.9705 8.57046 18.863 9.26402 19.9877C9.48202 20.3254 9.99569 21.0692 10.6927 20.7851C11.3048 20.5418 11.1682 19.7713 11.345 19.0953C11.3861 18.9333 11.3588 18.8251 11.4401 18.7167V18.747L11.998 19.8689C12.4197 20.5312 13.1545 21.2208 13.7662 21.6807C14.0925 21.924 14.351 22.3433 14.7589 22.4918V22.4509H14.7321C14.6504 22.3297 14.5278 22.2751 14.419 22.1805C14.1742 21.9373 13.9022 21.6398 13.7117 21.3695C13.1407 20.6127 12.6377 19.7743 12.1886 18.9093C11.9707 18.4903 11.7801 18.0307 11.6039 17.6117C11.5216 17.4493 11.5216 17.2057 11.3859 17.1251C11.1816 17.422 10.8829 17.6795 10.7326 18.0443C10.474 18.6254 10.4472 19.342 10.3521 20.0855C10.2972 20.0991 10.3216 20.0855 10.2972 20.1158C9.86246 20.008 9.71246 19.5613 9.54946 19.1832C9.14146 18.2234 9.07313 16.6824 9.4268 15.5739C9.52191 15.29 9.93046 14.3978 9.76735 14.1274C9.68513 13.8705 9.41368 13.7221 9.26368 13.5191C9.08691 13.2622 8.89702 12.938 8.77446 12.6541C8.44824 11.8967 8.28513 11.0589 7.93113 10.3019C7.76746 9.95032 7.48213 9.58521 7.25068 9.2611C6.99213 8.89599 6.70713 8.63899 6.50291 8.20665C6.43491 8.05521 6.3398 7.81465 6.44857 7.65221C6.47546 7.5441 6.53024 7.50076 6.63857 7.47654C6.81524 7.32499 7.31902 7.5171 7.4958 7.59765C7.9988 7.80065 8.42046 7.98976 8.84213 8.27332C9.03269 8.40843 9.23691 8.66543 9.48168 8.73332H9.76769C10.203 8.82776 10.6924 8.76354 11.0999 8.88476C11.821 9.11499 12.4737 9.45254 13.059 9.81787C14.8407 10.9399 16.3101 12.535 17.3027 14.4413C17.4658 14.7522 17.5338 15.0361 17.6838 15.3605C17.9698 16.0232 18.3235 16.6989 18.6085 17.3481C18.8945 17.9834 19.1664 18.6328 19.5744 19.1599C19.7786 19.4438 20.5944 19.5922 20.9615 19.741C21.2337 19.8622 21.655 19.9713 21.9005 20.1198C22.3626 20.4037 22.8251 20.7281 23.2601 21.039C23.4775 21.2008 24.158 21.5389 24.1985 21.8085L24.2 21.8012ZM10.3286 10.0542C10.1407 10.0526 9.95339 10.0753 9.77135 10.1218V10.1521H9.79813C9.90702 10.3684 10.0976 10.5172 10.2335 10.7065L10.5466 11.3554L10.5735 11.3252C10.7639 11.1901 10.8594 10.9738 10.8594 10.6497C10.7777 10.5551 10.7642 10.4602 10.6962 10.3657C10.6146 10.2305 10.4378 10.1627 10.3286 10.0549V10.0542Z" fill="white"/>
</g>
</svg>
