<svg width="64" height="64" viewBox="0 0 64 64" fill="none" xmlns="http://www.w3.org/2000/svg">
<g clip-path="url(#clip0_1300_134)">
<path d="M49 0H15C6.71573 0 0 6.71573 0 15V49C0 57.2843 6.71573 64 15 64H49C57.2843 64 64 57.2843 64 49V15C64 6.71573 57.2843 0 49 0Z" fill="#242938"/>
<path d="M43.1968 24.3513L43.1785 24.3435C43.1683 24.3396 43.1577 24.3356 43.1485 24.3265C43.1335 24.3104 43.1225 24.2912 43.1162 24.2701C43.11 24.2491 43.1085 24.2269 43.112 24.2052L44.12 18.0425L48.8473 22.7708L43.931 24.8625C43.9172 24.868 43.9028 24.8707 43.888 24.8703H43.8685C43.862 24.8664 43.8553 24.8612 43.8423 24.8481C43.6593 24.6444 43.4405 24.476 43.1968 24.3513ZM50.0532 23.9757L55.1077 29.03C56.1575 30.0813 56.683 30.6052 56.8747 31.213C56.9032 31.303 56.9267 31.393 56.945 31.4855L44.866 26.37C44.8595 26.3673 44.853 26.3647 44.8465 26.362C44.7983 26.3425 44.742 26.3203 44.742 26.2708C44.742 26.2213 44.7995 26.1977 44.8478 26.1782L44.8633 26.1717L50.0532 23.9757ZM56.739 33.1077C56.4782 33.598 55.9698 34.1067 55.109 34.9685L49.4105 40.6657L42.0402 39.131L42.001 39.1232C41.9357 39.1127 41.8667 39.101 41.8667 39.0423C41.8387 38.7383 41.7485 38.4432 41.6015 38.1755C41.4545 37.908 41.254 37.6735 41.0125 37.4868C40.9825 37.4568 40.9905 37.4097 40.9995 37.3667C40.9995 37.3602 40.9995 37.3537 41.0023 37.3485L42.3882 28.8385L42.3935 28.8097C42.4015 28.7445 42.413 28.669 42.4717 28.669C42.7687 28.632 43.0555 28.5363 43.3153 28.3873C43.575 28.2385 43.8025 28.0395 43.9845 27.8018C43.9963 27.7888 44.004 27.7743 44.0197 27.7665C44.0615 27.747 44.111 27.7665 44.154 27.7847L56.7378 33.1077H56.739ZM48.1 41.9762L38.7293 51.347L40.3332 41.4888L40.3358 41.4755C40.3373 41.4625 40.3397 41.4495 40.3438 41.4378C40.3568 41.4065 40.3905 41.3935 40.4232 41.3805L40.4388 41.374C40.79 41.224 41.1007 40.993 41.3452 40.6997C41.3765 40.6632 41.4143 40.628 41.4625 40.6215C41.475 40.6195 41.4878 40.6195 41.5003 40.6215L48.0985 41.9777L48.1 41.9762ZM36.7458 53.3305L35.6895 54.3867L24.0122 37.51C24.0079 37.504 24.0036 37.4977 23.9991 37.4917C23.9809 37.467 23.9613 37.4423 23.9652 37.4135C23.9665 37.3928 23.9796 37.3745 23.9939 37.3587L24.007 37.342C24.0422 37.2897 24.0721 37.2375 24.1047 37.1815L24.1308 37.1357L24.1348 37.132C24.153 37.1007 24.17 37.0707 24.2013 37.0537C24.2287 37.0407 24.2664 37.046 24.2964 37.0525L37.2335 39.7205C37.2698 39.726 37.3037 39.7408 37.3327 39.7635C37.3497 39.7805 37.3535 39.7987 37.3575 39.8195C37.4477 40.161 37.6158 40.477 37.8483 40.7427C38.0808 41.0085 38.3715 41.217 38.698 41.3517C38.7345 41.37 38.7187 41.4105 38.702 41.4535C38.6935 41.4722 38.687 41.492 38.6823 41.5122C38.5193 42.5032 37.1215 51.0288 36.7458 53.3305ZM34.5395 55.5355C33.761 56.3062 33.302 56.7142 32.783 56.8787C32.2713 57.0405 31.722 57.0405 31.2103 56.8787C30.6028 56.6857 30.0773 56.1615 29.0275 55.1105L17.3004 43.3835L20.3636 38.6328C20.3779 38.6095 20.3922 38.5885 20.4157 38.5715C20.4483 38.548 20.4952 38.5585 20.5344 38.5715C21.2374 38.7837 21.9923 38.7455 22.6703 38.4632C22.7055 38.4502 22.7408 38.4412 22.7682 38.466C22.7818 38.4785 22.7941 38.4925 22.8046 38.5078L34.5395 55.5368V55.5355ZM16.1698 42.2528L13.4796 39.5628L18.7922 37.2962C18.8058 37.2902 18.8204 37.2873 18.8352 37.2873C18.8796 37.2873 18.9056 37.3315 18.9291 37.372C18.9825 37.454 19.0391 37.534 19.0986 37.6118L19.1156 37.6328C19.1313 37.6548 19.1208 37.677 19.1052 37.698L16.1711 42.2528H16.1698ZM12.2891 38.372L8.8856 34.9685C8.30663 34.3895 7.88673 33.9698 7.59462 33.6085L17.9433 35.755C17.9563 35.7573 17.9693 35.7595 17.9824 35.7615C18.0463 35.7718 18.1167 35.7835 18.1167 35.8435C18.1167 35.9087 18.0398 35.9388 17.9746 35.9635L17.9446 35.9765L12.2891 38.372ZM7 31.8585C7.0118 31.6392 7.05123 31.4225 7.11735 31.213C7.31035 30.6052 7.83458 30.0813 8.8856 29.03L13.241 24.6747C15.2464 27.585 17.2572 30.4917 19.2734 33.3947C19.3086 33.4415 19.3477 33.4937 19.3073 33.5327C19.1169 33.7427 18.9265 33.9723 18.7922 34.2215C18.7776 34.2535 18.7552 34.2812 18.727 34.3022C18.71 34.3127 18.6918 34.3087 18.6722 34.3047H18.6696L7 31.8573V31.8585ZM14.4068 23.5089L20.2631 17.6526C20.8134 17.8938 22.8164 18.7401 24.6081 19.4965C25.9643 20.0702 27.2005 20.5918 27.589 20.7614C27.6283 20.777 27.6635 20.7927 27.6803 20.8318C27.6908 20.8553 27.6855 20.8852 27.6803 20.91C27.5878 21.3327 27.6015 21.7719 27.7205 22.188C27.8395 22.6041 28.06 22.984 28.3622 23.2938C28.4015 23.3329 28.3623 23.389 28.3285 23.4372L28.3102 23.4646L22.3639 32.6748C22.3482 32.701 22.3339 32.723 22.3078 32.74C22.2765 32.7595 22.2322 32.7505 22.1957 32.7412C21.9644 32.6807 21.7267 32.6482 21.4876 32.6447C21.2738 32.6447 21.0416 32.684 20.8069 32.727H20.8056C20.7795 32.731 20.756 32.736 20.7352 32.7205C20.7121 32.7018 20.6923 32.6792 20.6765 32.654L14.4068 23.5089ZM21.4459 16.4699L29.0275 8.8883C30.0773 7.83858 30.6028 7.31305 31.2103 7.12135C31.722 6.95955 32.2713 6.95955 32.783 7.12135C33.3908 7.31305 33.9162 7.83858 34.966 8.8883L36.609 10.5314L31.2167 18.8823C31.2035 18.9066 31.1852 18.9279 31.1635 18.9449C31.1307 18.967 31.0852 18.9579 31.046 18.9449C30.621 18.8159 30.1708 18.7923 29.7345 18.8764C29.2983 18.9605 28.889 19.1496 28.5422 19.4273C28.507 19.4638 28.455 19.443 28.4105 19.4234C27.7065 19.117 22.2296 16.8024 21.4459 16.4699ZM37.754 11.6763L42.7325 16.655L41.533 24.0853V24.1049C41.5318 24.1218 41.5282 24.1385 41.5225 24.1544C41.5095 24.1805 41.4832 24.1857 41.4572 24.1935C41.2007 24.2712 40.9592 24.3915 40.7427 24.5495C40.7332 24.5561 40.7247 24.5636 40.7165 24.5717C40.7022 24.5873 40.688 24.6017 40.6645 24.6043C40.6453 24.6049 40.6262 24.6018 40.6082 24.5951L33.0215 21.3716L33.0073 21.3651C32.959 21.3456 32.9017 21.3221 32.9017 21.2725C32.857 20.8498 32.719 20.4422 32.4975 20.0793C32.461 20.0194 32.4205 19.9568 32.4518 19.8955L37.754 11.6763ZM32.6265 22.8986L39.7385 25.911C39.7777 25.9292 39.8207 25.946 39.8377 25.9865C39.8445 26.0107 39.8445 26.0365 39.8377 26.0607C39.8167 26.1652 39.7985 26.2837 39.7985 26.4037V26.6033C39.7985 26.653 39.7477 26.6738 39.7007 26.6933L39.6865 26.6985C38.5598 27.1797 23.8687 33.4442 23.8465 33.4442C23.8244 33.4442 23.8009 33.4443 23.7787 33.422C23.7396 33.383 23.7787 33.3282 23.8139 33.2785C23.8202 33.27 23.8263 33.2612 23.8322 33.2525L29.6768 24.2027L29.6873 24.187C29.7213 24.1322 29.7603 24.0709 29.8228 24.0709L29.8815 24.0801C30.0145 24.0983 30.132 24.1153 30.2505 24.1153C31.1372 24.1153 31.9588 23.6837 32.4543 22.9456C32.4663 22.9259 32.4812 22.9082 32.4987 22.8934C32.534 22.8673 32.586 22.8804 32.6265 22.8986ZM24.4816 34.876L40.495 28.047C40.495 28.047 40.5185 28.047 40.5405 28.069C40.628 28.1565 40.7022 28.215 40.774 28.2698L40.8092 28.292C40.8417 28.3102 40.8745 28.3312 40.877 28.365C40.877 28.378 40.877 28.386 40.8745 28.3978L39.5025 36.8242L39.4972 36.858C39.4882 36.9233 39.479 36.9977 39.4178 36.9977C39.052 37.0222 38.6978 37.1358 38.386 37.3283C38.074 37.5208 37.8135 37.7862 37.6275 38.1022L37.6208 38.1125C37.6025 38.1425 37.5858 38.1713 37.5558 38.187C37.5283 38.2 37.493 38.1948 37.4645 38.1883L24.6942 35.554C24.6811 35.5515 24.4959 34.8772 24.4816 34.876Z" fill="url(#paint0_radial_1300_134)"/>
</g>
<defs>
<radialGradient id="paint0_radial_1300_134" cx="0" cy="0" r="1" gradientUnits="userSpaceOnUse" gradientTransform="translate(5.32313 31.2945) rotate(90) scale(49.945 57.6632)">
<stop stop-color="#20C6B7"/>
<stop offset="1" stop-color="#4D9ABF"/>
</radialGradient>
<clipPath id="clip0_1300_134">
<rect width="64" height="64" rx="32" fill="white"/>
</clipPath>
</defs>
</svg>
