<svg width="33" height="32" viewBox="0 0 33 32" fill="none" xmlns="http://www.w3.org/2000/svg">
<rect x="0.399902" width="32" height="32" rx="16" fill="#CD6799"/>
<mask id="mask0_686_637" style="mask-type:luminance" maskUnits="userSpaceOnUse" x="3" y="6" width="26" height="20">
<path d="M3.8999 6.625H28.8999V25.3636H3.8999V6.625Z" fill="white"/>
</mask>
<g mask="url(#mask0_686_637)">
<path d="M23.7216 17.1223C23.0238 17.1259 22.4174 17.294 21.9096 17.5423C21.7233 17.1734 21.537 16.8446 21.5041 16.6035C21.4676 16.3222 21.4238 16.1505 21.4676 15.8144C21.5114 15.4783 21.7087 14.9998 21.705 14.9633C21.7014 14.9267 21.6612 14.7551 21.2594 14.7514C20.8575 14.7478 20.5105 14.8281 20.4703 14.9341C20.4301 15.04 20.3534 15.2811 20.3023 15.5296C20.2329 15.8949 19.4985 17.199 19.0785 17.8821C18.9433 17.6155 18.8265 17.3816 18.8008 17.1953C18.7643 16.9141 18.7205 16.7424 18.7643 16.4063C18.8081 16.0702 19.0055 15.5916 19.0018 15.5551C18.9982 15.5185 18.9579 15.3468 18.5561 15.3432C18.1543 15.3395 17.8072 15.4199 17.767 15.5258C17.7268 15.6318 17.683 15.8803 17.5989 16.1213C17.515 16.3624 16.5396 18.5397 16.2839 19.1022C16.1806 19.3299 16.0722 19.5552 15.9588 19.778C15.9588 19.778 15.9551 19.789 15.9442 19.8072C15.9085 19.8771 15.872 19.9465 15.8345 20.0155V20.0192C15.7798 20.1178 15.7213 20.2091 15.692 20.2091C15.6701 20.2091 15.63 19.9461 15.6993 19.5881C15.8455 18.8319 16.1925 17.6556 16.1889 17.6155C16.1889 17.5935 16.2547 17.3889 15.9624 17.283C15.6774 17.177 15.5752 17.3524 15.5496 17.3524C15.524 17.3524 15.5057 17.4145 15.5057 17.4145C15.5057 17.4145 15.8236 16.0921 14.8994 16.0921C14.3222 16.0921 13.5258 16.724 13.1314 17.294C12.6828 17.538 12.2347 17.7828 11.7869 18.0282C11.5715 18.1488 11.3486 18.2693 11.1403 18.3826C11.1257 18.368 11.1111 18.3497 11.0965 18.3351C9.97864 17.1405 7.91104 16.2967 7.99869 14.693C8.03161 14.1084 8.23253 12.5741 11.9696 10.7111C15.0455 9.19508 17.4931 9.61513 17.9168 10.5467C18.5232 11.8764 16.6054 14.3459 13.4272 14.7039C12.2143 14.8391 11.5788 14.3715 11.4181 14.1962C11.25 14.0135 11.2244 14.0026 11.1622 14.0391C11.06 14.0938 11.1257 14.2582 11.1622 14.3532C11.2573 14.6016 11.6481 15.04 12.3093 15.2555C12.8938 15.4455 14.3148 15.5515 16.0354 14.8866C17.9607 14.1413 19.4657 12.0699 19.0237 10.3348C18.5817 8.57402 15.6592 7.99319 12.8938 8.97586C11.2499 9.5604 9.46724 10.4809 8.185 11.6791C6.66162 13.1039 6.42058 14.3423 6.51923 14.861C6.87354 16.7021 9.41241 17.9003 10.428 18.788C10.3769 18.8173 10.3293 18.8429 10.2892 18.8648C9.78142 19.1168 7.8453 20.1287 7.36302 21.1991C6.81511 22.4119 7.45077 23.2813 7.87082 23.3982C9.17497 23.7599 10.5156 23.1096 11.2354 22.0356C11.955 20.9616 11.8673 19.5662 11.5348 18.9269C11.5313 18.9188 11.5263 18.9114 11.5202 18.905C11.6518 18.8283 11.7869 18.7479 11.9185 18.6712C12.1602 18.5283 12.405 18.3907 12.6527 18.2583C12.5285 18.5981 12.4372 19.0036 12.3933 19.5881C12.3386 20.2749 12.6199 21.1662 12.9888 21.5169C13.1532 21.6703 13.3468 21.674 13.4711 21.674C13.9021 21.674 14.0957 21.316 14.3112 20.8923C14.5742 20.3735 14.8117 19.7707 14.8117 19.7707C14.8117 19.7707 14.5158 21.4001 15.3194 21.4001C15.6117 21.4001 15.9076 21.0201 16.0391 20.8265V20.8301C16.0391 20.8301 16.0464 20.8192 16.0611 20.7936C16.0903 20.7461 16.1085 20.7169 16.1085 20.7169V20.7096C16.2255 20.505 16.4884 20.0411 16.8793 19.2702C17.3834 18.2766 17.8693 17.0346 17.8693 17.0346C17.8693 17.0346 17.9131 17.3378 18.0629 17.8419C18.1506 18.1379 18.3333 18.463 18.4794 18.7771C18.3625 18.9415 18.2894 19.0328 18.2894 19.0328L18.2931 19.0365C18.1981 19.1607 18.0958 19.2958 17.9826 19.4273C17.5843 19.9023 17.1095 20.4466 17.0437 20.6037C16.967 20.79 16.9853 20.9251 17.1314 21.0347C17.2373 21.1151 17.4272 21.126 17.6209 21.1151C17.9789 21.0895 18.231 21.0018 18.3552 20.947C18.5488 20.8776 18.7753 20.7717 18.9872 20.6146C19.3781 20.326 19.6155 19.9132 19.5936 19.3689C19.5826 19.0693 19.4839 18.7698 19.3635 18.4885C19.4 18.4373 19.4328 18.3862 19.4693 18.3351C20.0868 17.4328 20.5653 16.4428 20.5653 16.4428C20.5653 16.4428 20.6091 16.746 20.7589 17.2501C20.8319 17.5058 20.9817 17.7835 21.1133 18.0538C20.5324 18.5251 20.1744 19.073 20.0466 19.431C19.8164 20.0959 19.9954 20.3954 20.3351 20.4648C20.4886 20.4977 20.7078 20.4247 20.8685 20.3552C21.0731 20.2895 21.3142 20.1762 21.5443 20.0081C21.9352 19.7196 22.3115 19.3177 22.2896 18.7734C22.2786 18.5251 22.2128 18.2802 22.1215 18.0428C22.6147 17.8383 23.2503 17.725 24.0613 17.82C25.8002 18.0246 26.1436 19.1095 26.0778 19.5662C26.012 20.0228 25.6467 20.2712 25.5261 20.3479C25.4057 20.4247 25.3654 20.4502 25.3765 20.505C25.3911 20.5854 25.4495 20.5817 25.5518 20.5671C25.6942 20.5416 26.465 20.1982 26.4979 19.358C26.5527 18.2839 25.5298 17.1113 23.7216 17.1223ZM10.3074 21.6448C9.73029 22.2731 8.92663 22.5106 8.57953 22.3097C8.20691 22.0941 8.353 21.1662 9.06181 20.5013C9.49276 20.0959 10.0481 19.7196 10.417 19.4894C10.501 19.4383 10.6252 19.3653 10.775 19.2739C10.8006 19.2593 10.8152 19.252 10.8152 19.252L10.9029 19.1972C11.1622 20.147 10.9138 20.9836 10.3074 21.6448ZM14.5085 18.788C14.3075 19.2776 13.8875 20.5305 13.6318 20.4612C13.4126 20.4027 13.2774 19.4529 13.5879 18.5141C13.745 18.0428 14.0774 17.4803 14.271 17.2611C14.5852 16.9104 14.9322 16.7935 15.0163 16.936C15.1222 17.1223 14.6327 18.4812 14.5085 18.788ZM17.9753 20.4466C17.8912 20.4904 17.8109 20.5196 17.7744 20.4977C17.7487 20.4831 17.8109 20.4247 17.8109 20.4247C17.8109 20.4247 18.2456 19.957 18.4173 19.7452C18.5159 19.6209 18.6328 19.4748 18.757 19.3104V19.358C18.757 19.9169 18.2164 20.2931 17.9753 20.4466ZM20.6493 19.8364C20.5872 19.7926 20.5982 19.6465 20.8064 19.1899C20.8868 19.0109 21.0768 18.7114 21.4019 18.4227C21.4384 18.5397 21.464 18.6529 21.4603 18.7588C21.4567 19.4639 20.9525 19.7269 20.6493 19.8364Z" fill="white"/>
</g>
</svg>
