<svg width="64" height="64" viewBox="0 0 64 64" fill="none" xmlns="http://www.w3.org/2000/svg">
<g clip-path="url(#clip0_1300_66)">
<path d="M49 0H15C6.71573 0 0 6.71573 0 15V49C0 57.2843 6.71573 64 15 64H49C57.2843 64 64 57.2843 64 49V15C64 6.71573 57.2843 0 49 0Z" fill="#242938"/>
<path d="M47.9897 22.9946V40.9963L32.0232 49.9585L31.8765 50.0865V56.872L32.0232 57L54.5032 44.5682V19.5H54.2887L47.9505 22.894V23.0343" fill="#2F406A"/>
<path d="M15.904 41.1015L32.0348 50.0117V57L9.25 44.5V19.5H9.47937L15.8377 23.0258L15.9048 23.2312V41.1797" fill="#2379BD"/>
<path d="M15.9462 23.1392L9.25 19.4592L31.9377 7L54.5033 19.4077L47.9808 22.8964L31.9093 14.1687L15.9192 23.1136" fill="#03AFEF"/>
<path d="M31.7361 38.962L31.5603 38.7975V32.1183L31.7361 32.0293V31.865L37.8576 28.519H38.0476V35.4138L31.6956 38.9375" fill="#2F406A"/>
<path d="M25.2847 35.7715V28.519H25.4615L31.7182 31.9588V39.1203L25.231 35.7708" fill="#2379BD"/>
<path d="M31.6649 24.919L25.3892 28.5581L31.7717 32.1584L38.0474 28.5719L31.6639 24.8799" fill="#03AFEF"/>
<path d="M23.9741 43.551L23.8069 43.3842V36.5987L23.9741 36.5087V36.342L29.7972 32.9497H29.9777V39.9402L23.9357 43.5125" fill="#2F406A"/>
<path d="M17.4778 40.2012V32.9497H17.6558L23.9651 36.3895V43.551L17.4786 40.2012" fill="#2379BD"/>
<path d="M23.7669 29.3228L17.4778 32.9493L23.8607 36.5886L30.1359 33.0018L23.7531 29.3101" fill="#03AFEF"/>
<path d="M39.9638 43.7089L39.7881 43.5446V36.8604L39.9638 36.7719V36.6074L46.0856 33.2656H46.2753V40.1519L39.9233 43.6709" fill="#2F406A"/>
<path d="M33.6444 40.3579V33.1079H33.8482L40.1044 36.5477V43.7092L33.6169 40.3579" fill="#2379BD"/>
<path d="M39.9721 29.4683L33.7751 33.0283L40.0784 36.5885L46.2751 33.0798L39.9721 29.4683Z" fill="#03AFEF"/>
<path d="M32.2104 48.1393L32.0347 47.9726V41.1866L32.2104 41.0966V40.9298L38.3322 37.5381H38.5222V44.5273L32.1699 48.0993" fill="#2F406A"/>
<path d="M25.7058 44.7771V37.5381H25.8838L32.1931 40.9778V48.1393L25.7066 44.7763" fill="#2379BD"/>
<path d="M32.0671 33.9007L25.7058 37.4852L32.1751 41.0192L38.5223 37.4852L32.0663 33.8989" fill="#03AFEF"/>
<path d="M31.7361 29.4685L31.5603 29.3012V22.5252L31.7361 22.4349V22.2678L37.8576 18.8672H38.0476V25.8747L31.7361 29.4685Z" fill="#2F406A"/>
<path d="M25.2847 26.1365V18.8672H25.4615L31.7182 22.3153V29.4685L25.231 26.1105" fill="#2379BD"/>
<path d="M31.6644 15.3862L25.3892 18.9464L31.7722 22.5065L38.0474 18.998L31.6644 15.3862Z" fill="#03AFEF"/>
<path d="M23.9741 33.8986L23.8069 33.7301V26.8251L23.9741 26.7341V26.5656L29.7972 23.1392H29.9777V30.2001L23.9357 33.8084" fill="#2F406A"/>
<path d="M17.4778 30.5496V23.2974H17.6558L23.9651 26.7371V33.8986L17.4786 30.5489" fill="#2379BD"/>
<path d="M23.7669 19.6582L17.4778 23.1992L23.8607 26.7785L30.1359 23.2764L23.7531 19.6715" fill="#03AFEF"/>
<path d="M39.9638 34.2151L39.7881 34.0456V27.1634L39.9638 27.0716V26.9021L46.0856 23.4556H46.2753V30.5584L39.9233 34.1879" fill="#2F406A"/>
<path d="M33.7751 30.8504V23.4556H33.9709L39.9461 26.9381V34.2151L33.7751 30.8504Z" fill="#2379BD"/>
<path d="M39.9721 19.818L33.7751 23.3765L40.0784 26.9366L46.2751 23.4281L39.9721 19.8164" fill="#03AFEF"/>
<path d="M32.2104 38.4865L32.0347 38.3168V31.445L32.2104 31.3533V31.1833L38.3322 27.728H38.5222V34.8485L32.2104 38.4875" fill="#2F406A"/>
<path d="M25.7058 35.1128V27.728H25.8838L32.1931 31.2315V38.4875L25.7058 35.1128Z" fill="#2379BD"/>
<path d="M32.0736 24.2466L25.7058 27.8003L32.1683 31.3668L38.5223 27.852L32.0743 24.2482" fill="#03AFEF"/>
</g>
<defs>
<clipPath id="clip0_1300_66">
<rect width="64" height="64" rx="32" fill="white"/>
</clipPath>
</defs>
</svg>
