<svg width="32" height="32" viewBox="0 0 32 32" fill="none" xmlns="http://www.w3.org/2000/svg">
<rect width="32" height="32" rx="16" fill="#0073AA"/>
<path d="M7.42139 15.9994C7.42139 19.3949 9.39469 22.3293 12.2561 23.7199L8.16409 12.5083C7.67356 13.6067 7.42048 14.7964 7.42139 15.9994ZM21.7908 15.5665C21.7908 14.5064 21.41 13.7722 21.0834 13.2007C20.6485 12.4941 20.2409 11.8957 20.2409 11.1891C20.2409 10.4005 20.839 9.66649 21.6814 9.66649C21.7195 9.66649 21.7555 9.67119 21.7926 9.67329C20.2664 8.27509 18.2331 7.42139 15.9997 7.42139C13.0029 7.42139 10.3662 8.95899 8.83239 11.288C9.03359 11.294 9.22329 11.2983 9.38439 11.2983C10.2817 11.2983 11.6706 11.1893 11.6706 11.1893C12.133 11.1621 12.1876 11.8413 11.7256 11.896C11.7256 11.896 11.2609 11.9507 10.7438 11.9778L13.8676 21.2696L15.7449 15.6393L14.4084 11.9775C13.9465 11.9504 13.5089 11.8957 13.5089 11.8957C13.0466 11.8686 13.1008 11.1618 13.5631 11.1891C13.5631 11.1891 14.9797 11.2979 15.8226 11.2979C16.7198 11.2979 18.1088 11.1891 18.1088 11.1891C18.5716 11.1618 18.6259 11.841 18.1638 11.8957C18.1638 11.8957 17.6981 11.9504 17.182 11.9775L20.2821 21.1989L21.1377 18.3397C21.5086 17.1531 21.7908 16.3009 21.7908 15.5665Z" fill="white"/>
<path d="M16.1502 16.7498L13.5764 24.2288C14.3633 24.4606 15.1794 24.5783 15.9997 24.5783C16.9699 24.5786 17.9332 24.4142 18.8483 24.092C18.8245 24.0545 18.8041 24.0149 18.7873 23.9738L16.1502 16.7498ZM23.5268 11.8838C23.5658 12.1762 23.5851 12.4708 23.5846 12.7658C23.5846 13.6363 23.422 14.6149 22.9323 15.8385L20.312 23.4144C22.8623 21.9272 24.5777 19.1643 24.5777 15.9996C24.5778 14.5081 24.1969 13.1056 23.5268 11.8838Z" fill="white"/>
<path d="M15.9998 6C10.486 6 6 10.4857 6 15.9994C6 21.5138 10.486 25.9993 15.9998 25.9993C21.5133 25.9993 26 21.5138 26 15.9994C25.9998 10.4857 21.5133 6 15.9998 6ZM15.9998 25.541C10.7388 25.541 6.4585 21.2606 6.4585 15.9994C6.4585 10.7385 10.7387 6.4585 15.9998 6.4585C21.2605 6.4585 25.5405 10.7385 25.5405 15.9994C25.5405 21.2606 21.2605 25.541 15.9998 25.541Z" fill="white"/>
</svg>
