<svg width="33" height="32" viewBox="0 0 33 32" fill="none" xmlns="http://www.w3.org/2000/svg">
<rect x="0.800049" width="32" height="32" rx="16" fill="#242938"/>
<path d="M17.0001 17.6951C18.0305 17.6951 18.8657 16.8598 18.8657 15.8295C18.8657 14.7992 18.0305 13.9639 17.0001 13.9639C15.9698 13.9639 15.1345 14.7992 15.1345 15.8295C15.1345 16.8598 15.9698 17.6951 17.0001 17.6951Z" fill="#00D8FF"/>
<path d="M17.0002 12.0364C19.505 12.0364 21.8319 12.3958 23.5864 12.9999C25.7003 13.7276 27 14.8307 27 15.8296C27 16.8705 25.6226 18.0424 23.3525 18.7945C21.6363 19.3631 19.3779 19.6599 17.0002 19.6599C14.5624 19.6599 12.2539 19.3813 10.5183 18.7882C8.3225 18.0377 7 16.8507 7 15.8296C7 14.8388 8.241 13.7442 10.3252 13.0176C12.0862 12.4036 14.4705 12.0364 16.9998 12.0364H17.0002Z" stroke="#00D8FF" stroke-width="2"/>
<path d="M13.698 13.9438C14.9494 11.774 16.4231 9.9378 17.8229 8.7198C19.5093 7.2521 21.1143 6.6773 21.9795 7.1762C22.8812 7.6962 23.2083 9.475 22.7258 11.8172C22.3613 13.5879 21.4899 15.6925 20.302 17.7523C19.0841 19.8641 17.6896 21.7247 16.3089 22.9315C14.5618 24.4587 12.8727 25.0114 11.9882 24.5013C11.1299 24.0067 10.8017 22.3846 11.2135 20.2161C11.5614 18.3838 12.4345 16.1349 13.6976 13.9438H13.698Z" stroke="#00D8FF" stroke-width="2"/>
<path d="M13.7011 17.7578C12.4462 15.5904 11.5918 13.3962 11.2352 11.5752C10.8059 9.38111 11.1094 7.70361 11.9739 7.20321C12.8748 6.68161 14.5791 7.28661 16.3673 8.87441C17.7193 10.0748 19.1076 11.8805 20.2989 13.9383C21.5203 16.0481 22.4357 18.1856 22.7918 19.9844C23.2424 22.2608 22.8777 24.0001 21.994 24.5116C21.1366 25.008 19.5675 24.4825 17.8944 23.0427C16.4808 21.8263 14.9684 19.9468 13.7011 17.7578Z" stroke="#00D8FF" stroke-width="2"/>
</svg>
