<svg width="33" height="32" viewBox="0 0 33 32" fill="none" xmlns="http://www.w3.org/2000/svg">
<rect x="0.800049" width="32" height="32" rx="16" fill="#007ACC"/>
<path d="M7.00903 10.815L7 11.9839H10.7149V22.5398H13.3427V11.9839H17.0576V10.8376C17.0576 10.2034 17.0441 9.67332 17.026 9.65972C17.0124 9.64166 14.7517 9.63252 12.0108 9.63709L7.02274 9.65069L7.00903 10.815ZM23.7278 9.61747C24.4526 9.79875 25.0054 10.1204 25.5128 10.6459C25.7756 10.9268 26.1651 11.4388 26.1969 11.5611C26.2059 11.5973 24.9646 12.4309 24.2126 12.8975C24.1854 12.9157 24.0766 12.7979 23.9543 12.6167C23.5873 12.0821 23.2023 11.851 22.6132 11.8103C21.748 11.7513 21.1907 12.2044 21.1953 12.961C21.1953 13.183 21.227 13.3143 21.3176 13.4956C21.5078 13.8897 21.8612 14.1253 22.9712 14.6055C25.0144 15.4845 25.8887 16.0643 26.4325 16.8888C27.0396 17.8085 27.1755 19.2764 26.7632 20.3682C26.3102 21.5552 25.1866 22.3616 23.6054 22.6289C23.1162 22.715 21.9563 22.7014 21.4309 22.6063C20.2846 22.4024 19.1974 21.8361 18.5269 21.0932C18.2641 20.8032 17.7521 20.0466 17.7839 19.9922C17.7974 19.9741 17.9152 19.9016 18.0466 19.8246C18.1734 19.7521 18.6537 19.4757 19.1067 19.213L19.9267 18.7372L20.0989 18.991C20.339 19.3579 20.8645 19.8608 21.1817 20.0284C22.0922 20.5087 23.3427 20.4407 23.9588 19.888C24.2216 19.6479 24.3303 19.3987 24.3303 19.0318C24.3303 18.701 24.2895 18.5561 24.1174 18.3069C23.8954 17.9898 23.4424 17.7224 22.1557 17.1652C20.6833 16.5309 20.0491 16.1368 19.4692 15.5116C19.1339 15.1492 18.8167 14.5692 18.6854 14.0845C18.5767 13.6813 18.5495 12.671 18.6356 12.2633C18.939 10.8407 20.0128 9.84859 21.5622 9.55403C22.0652 9.45892 23.2339 9.49516 23.7278 9.61747Z" fill="white"/>
</svg>
